<svg xmlns="http://www.w3.org/2000/svg" xmlns:xlink="http://www.w3.org/1999/xlink" width="500" zoomAndPan="magnify" viewBox="0 0 375 374.999991" height="500" preserveAspectRatio="xMidYMid meet" version="1.0"><defs><clipPath id="da4e27fcdb"><path d="M 18.445312 18.664062 L 356.695312 18.664062 L 356.695312 356.914062 L 18.445312 356.914062 Z M 18.445312 18.664062 " clip-rule="nonzero"/></clipPath><clipPath id="b6a49a0613"><path d="M 53.679688 42.042969 L 321.429688 42.042969 L 321.429688 333 L 53.679688 333 Z M 53.679688 42.042969 " clip-rule="nonzero"/></clipPath></defs><g clip-path="url(#da4e27fcdb)"><path fill="#11406d" d="M 356.695312 187.789062 C 356.695312 190.558594 356.625 193.324219 356.492188 196.085938 C 356.355469 198.851562 356.152344 201.613281 355.878906 204.367188 C 355.609375 207.121094 355.269531 209.867188 354.863281 212.605469 C 354.457031 215.34375 353.984375 218.070312 353.445312 220.785156 C 352.90625 223.5 352.296875 226.199219 351.625 228.882812 C 350.953125 231.566406 350.214844 234.234375 349.410156 236.882812 C 348.609375 239.53125 347.742188 242.160156 346.808594 244.765625 C 345.875 247.371094 344.878906 249.953125 343.820312 252.511719 C 342.761719 255.066406 341.640625 257.597656 340.457031 260.097656 C 339.273438 262.601562 338.027344 265.074219 336.722656 267.515625 C 335.417969 269.957031 334.054688 272.363281 332.632812 274.738281 C 331.210938 277.109375 329.730469 279.449219 328.191406 281.75 C 326.652344 284.050781 325.0625 286.3125 323.410156 288.535156 C 321.761719 290.761719 320.0625 292.941406 318.304688 295.082031 C 316.550781 297.21875 314.742188 299.316406 312.882812 301.367188 C 311.023438 303.417969 309.117188 305.421875 307.160156 307.378906 C 305.203125 309.335938 303.199219 311.242188 301.148438 313.101562 C 299.097656 314.960938 297 316.769531 294.859375 318.523438 C 292.722656 320.28125 290.539062 321.984375 288.316406 323.632812 C 286.09375 325.28125 283.832031 326.875 281.53125 328.410156 C 279.230469 329.949219 276.890625 331.429688 274.515625 332.851562 C 272.144531 334.277344 269.734375 335.640625 267.292969 336.945312 C 264.851562 338.25 262.382812 339.492188 259.878906 340.675781 C 257.378906 341.859375 254.847656 342.980469 252.289062 344.039062 C 249.734375 345.097656 247.152344 346.09375 244.546875 347.027344 C 241.941406 347.960938 239.3125 348.828125 236.664062 349.632812 C 234.015625 350.433594 231.347656 351.171875 228.664062 351.84375 C 225.980469 352.519531 223.277344 353.125 220.5625 353.664062 C 217.847656 354.203125 215.125 354.675781 212.386719 355.082031 C 209.648438 355.488281 206.902344 355.828125 204.148438 356.101562 C 201.390625 356.371094 198.632812 356.574219 195.867188 356.710938 C 193.105469 356.847656 190.335938 356.914062 187.570312 356.914062 C 184.800781 356.914062 182.035156 356.847656 179.269531 356.710938 C 176.507812 356.574219 173.746094 356.371094 170.992188 356.101562 C 168.238281 355.828125 165.492188 355.488281 162.753906 355.082031 C 160.015625 354.675781 157.289062 354.203125 154.574219 353.664062 C 151.859375 353.125 149.160156 352.519531 146.476562 351.84375 C 143.789062 351.171875 141.125 350.433594 138.476562 349.632812 C 135.828125 348.828125 133.199219 347.960938 130.59375 347.027344 C 127.988281 346.09375 125.40625 345.097656 122.847656 344.039062 C 120.292969 342.980469 117.761719 341.859375 115.257812 340.675781 C 112.757812 339.492188 110.285156 338.25 107.84375 336.945312 C 105.402344 335.640625 102.996094 334.277344 100.621094 332.851562 C 98.246094 331.429688 95.910156 329.949219 93.609375 328.410156 C 91.308594 326.875 89.046875 325.28125 86.820312 323.632812 C 84.597656 321.984375 82.417969 320.28125 80.277344 318.523438 C 78.136719 316.769531 76.042969 314.960938 73.992188 313.101562 C 71.941406 311.242188 69.9375 309.335938 67.980469 307.378906 C 66.023438 305.421875 64.113281 303.417969 62.257812 301.367188 C 60.398438 299.316406 58.589844 297.21875 56.835938 295.082031 C 55.078125 292.941406 53.375 290.761719 51.726562 288.535156 C 50.078125 286.3125 48.484375 284.050781 46.949219 281.75 C 45.410156 279.449219 43.929688 277.109375 42.507812 274.738281 C 41.082031 272.363281 39.71875 269.957031 38.414062 267.515625 C 37.109375 265.074219 35.867188 262.601562 34.683594 260.097656 C 33.5 257.597656 32.378906 255.066406 31.320312 252.511719 C 30.257812 249.953125 29.261719 247.371094 28.332031 244.765625 C 27.398438 242.160156 26.53125 239.53125 25.726562 236.882812 C 24.921875 234.234375 24.1875 231.566406 23.511719 228.882812 C 22.839844 226.199219 22.234375 223.5 21.695312 220.785156 C 21.15625 218.070312 20.679688 215.34375 20.273438 212.605469 C 19.867188 209.867188 19.53125 207.121094 19.257812 204.367188 C 18.988281 201.613281 18.785156 198.851562 18.648438 196.085938 C 18.511719 193.324219 18.445312 190.558594 18.445312 187.789062 C 18.445312 185.019531 18.511719 182.253906 18.648438 179.492188 C 18.785156 176.726562 18.988281 173.964844 19.257812 171.210938 C 19.53125 168.457031 19.867188 165.710938 20.273438 162.972656 C 20.679688 160.234375 21.15625 157.507812 21.695312 154.792969 C 22.234375 152.078125 22.839844 149.378906 23.511719 146.695312 C 24.1875 144.011719 24.921875 141.34375 25.726562 138.695312 C 26.53125 136.046875 27.398438 133.417969 28.332031 130.8125 C 29.261719 128.207031 30.257812 125.625 31.320312 123.066406 C 32.378906 120.511719 33.5 117.980469 34.683594 115.480469 C 35.867188 112.976562 37.109375 110.503906 38.414062 108.0625 C 39.71875 105.625 41.082031 103.214844 42.507812 100.839844 C 43.929688 98.46875 45.410156 96.128906 46.949219 93.828125 C 48.484375 91.527344 50.078125 89.265625 51.726562 87.042969 C 53.375 84.820312 55.078125 82.636719 56.835938 80.496094 C 58.589844 78.359375 60.398438 76.261719 62.257812 74.210938 C 64.113281 72.160156 66.023438 70.15625 67.980469 68.199219 C 69.9375 66.242188 71.941406 64.335938 73.992188 62.476562 C 76.042969 60.617188 78.136719 58.808594 80.277344 57.054688 C 82.417969 55.296875 84.597656 53.59375 86.820312 51.945312 C 89.046875 50.296875 91.308594 48.703125 93.609375 47.167969 C 95.910156 45.628906 98.246094 44.148438 100.621094 42.726562 C 102.996094 41.304688 105.402344 39.9375 107.84375 38.632812 C 110.285156 37.328125 112.757812 36.085938 115.257812 34.902344 C 117.761719 33.71875 120.292969 32.597656 122.847656 31.539062 C 125.40625 30.480469 127.988281 29.484375 130.59375 28.550781 C 133.199219 27.617188 135.828125 26.75 138.476562 25.945312 C 141.125 25.144531 143.789062 24.40625 146.476562 23.734375 C 149.160156 23.058594 151.859375 22.453125 154.574219 21.914062 C 157.289062 21.375 160.015625 20.902344 162.753906 20.496094 C 165.492188 20.089844 168.238281 19.75 170.992188 19.480469 C 173.746094 19.207031 176.507812 19.003906 179.269531 18.867188 C 182.035156 18.730469 184.800781 18.664062 187.570312 18.664062 C 190.335938 18.664062 193.105469 18.730469 195.867188 18.867188 C 198.632812 19.003906 201.390625 19.207031 204.148438 19.480469 C 206.902344 19.75 209.648438 20.089844 212.386719 20.496094 C 215.125 20.902344 217.847656 21.375 220.5625 21.914062 C 223.277344 22.453125 225.980469 23.058594 228.664062 23.734375 C 231.347656 24.40625 234.015625 25.144531 236.664062 25.945312 C 239.3125 26.75 241.941406 27.617188 244.546875 28.550781 C 247.152344 29.484375 249.734375 30.480469 252.289062 31.539062 C 254.847656 32.597656 257.378906 33.71875 259.878906 34.902344 C 262.382812 36.085938 264.855469 37.328125 267.292969 38.632812 C 269.734375 39.9375 272.144531 41.304688 274.515625 42.726562 C 276.890625 44.148438 279.230469 45.628906 281.53125 47.167969 C 283.832031 48.703125 286.09375 50.296875 288.316406 51.945312 C 290.539062 53.59375 292.722656 55.296875 294.859375 57.054688 C 297 58.808594 299.097656 60.617188 301.148438 62.476562 C 303.199219 64.335938 305.203125 66.242188 307.160156 68.199219 C 309.117188 70.15625 311.023438 72.160156 312.882812 74.210938 C 314.742188 76.261719 316.550781 78.359375 318.304688 80.496094 C 320.0625 82.636719 321.761719 84.820312 323.410156 87.042969 C 325.0625 89.265625 326.652344 91.527344 328.191406 93.828125 C 329.730469 96.128906 331.210938 98.46875 332.632812 100.839844 C 334.054688 103.214844 335.417969 105.625 336.722656 108.0625 C 338.027344 110.503906 339.273438 112.976562 340.457031 115.480469 C 341.640625 117.980469 342.761719 120.511719 343.820312 123.066406 C 344.878906 125.625 345.875 128.207031 346.808594 130.8125 C 347.742188 133.417969 348.609375 136.046875 349.410156 138.695312 C 350.214844 141.34375 350.953125 144.011719 351.625 146.695312 C 352.296875 149.378906 352.90625 152.078125 353.445312 154.792969 C 353.984375 157.507812 354.457031 160.234375 354.863281 162.972656 C 355.269531 165.710938 355.609375 168.457031 355.878906 171.210938 C 356.152344 173.964844 356.355469 176.726562 356.492188 179.492188 C 356.625 182.253906 356.695312 185.019531 356.695312 187.789062 Z M 356.695312 187.789062 " fill-opacity="1" fill-rule="nonzero"/></g><g clip-path="url(#b6a49a0613)"><path fill="#ffffff" d="M 321.148438 204.035156 C 321.101562 204.832031 321.105469 205.636719 321.023438 206.429688 L 320.800781 208.820312 L 320.582031 211.207031 L 320.472656 212.402344 C 320.429688 212.796875 320.363281 213.191406 320.308594 213.589844 L 319.628906 218.332031 C 319.535156 219.125 319.351562 219.90625 319.207031 220.691406 L 318.746094 223.039062 L 318.289062 225.390625 L 317.714844 227.714844 L 317.136719 230.035156 C 316.9375 230.808594 316.78125 231.589844 316.53125 232.347656 L 315.148438 236.925781 C 314.9375 237.691406 314.664062 238.441406 314.394531 239.191406 L 313.589844 241.441406 L 312.789062 243.691406 C 312.5 244.433594 312.183594 245.164062 311.882812 245.898438 L 310.972656 248.105469 C 310.660156 248.835938 310.386719 249.585938 310.03125 250.296875 L 307.996094 254.613281 C 305.136719 260.289062 301.949219 265.796875 298.335938 271.011719 C 294.6875 276.203125 290.710938 281.148438 286.40625 285.789062 C 282.046875 290.378906 277.390625 294.667969 272.472656 298.628906 C 267.511719 302.539062 262.277344 306.074219 256.847656 309.261719 L 252.714844 311.546875 C 252.035156 311.945312 251.320312 312.277344 250.617188 312.625 L 248.496094 313.664062 L 246.382812 314.703125 L 244.214844 315.640625 L 242.054688 316.574219 C 241.332031 316.886719 240.617188 317.210938 239.875 317.46875 L 235.464844 319.125 C 234.738281 319.417969 233.976562 319.621094 233.234375 319.871094 L 230.992188 320.589844 C 230.246094 320.824219 229.5 321.074219 228.75 321.300781 L 226.476562 321.90625 L 224.207031 322.511719 C 223.449219 322.710938 222.695312 322.925781 221.925781 323.070312 L 217.328125 324.050781 C 216.566406 324.234375 215.789062 324.332031 215.015625 324.460938 L 210.382812 325.210938 L 208.050781 325.472656 C 206.492188 325.628906 204.945312 325.84375 203.386719 325.960938 L 198.707031 326.238281 L 197.535156 326.308594 C 197.144531 326.320312 196.753906 326.316406 196.363281 326.320312 L 194.019531 326.34375 C 190.894531 326.441406 187.777344 326.21875 184.660156 326.109375 C 183.105469 325.996094 181.554688 325.828125 180 325.691406 C 179.226562 325.617188 178.449219 325.5625 177.675781 325.464844 L 173.050781 324.800781 C 172.28125 324.6875 171.507812 324.59375 170.746094 324.425781 L 166.164062 323.527344 C 165.398438 323.398438 164.648438 323.191406 163.894531 323.007812 L 161.628906 322.445312 L 159.367188 321.882812 L 157.136719 321.214844 L 154.90625 320.539062 C 154.164062 320.308594 153.410156 320.121094 152.6875 319.839844 L 148.300781 318.273438 C 147.566406 318.03125 146.851562 317.726562 146.136719 317.425781 L 143.984375 316.539062 L 141.835938 315.648438 L 139.730469 314.660156 L 137.628906 313.667969 C 136.933594 313.332031 136.222656 313.027344 135.546875 312.644531 L 131.449219 310.460938 C 126.0625 307.40625 120.867188 304.035156 115.960938 300.277344 C 111.085938 296.480469 106.476562 292.367188 102.15625 287.96875 C 97.90625 283.503906 93.957031 278.769531 90.34375 273.796875 C 86.769531 268.792969 83.59375 263.527344 80.753906 258.097656 L 78.726562 253.972656 C 78.371094 253.292969 78.09375 252.578125 77.785156 251.878906 L 76.875 249.769531 L 75.96875 247.660156 L 74.359375 243.363281 C 74.085938 242.648438 73.8125 241.9375 73.59375 241.203125 L 72.199219 236.839844 C 71.945312 236.117188 71.789062 235.367188 71.582031 234.632812 L 70.992188 232.417969 L 70.410156 230.207031 L 69.457031 225.730469 C 69.300781 224.984375 69.125 224.242188 69.019531 223.484375 L 68.292969 218.972656 C 68.15625 218.222656 68.085938 217.460938 68.003906 216.707031 L 67.753906 214.433594 L 67.503906 212.164062 C 67.433594 211.40625 67.40625 210.644531 67.355469 209.882812 C 67.273438 208.363281 67.160156 206.84375 67.101562 205.324219 C 67.097656 202.277344 66.980469 199.234375 67.179688 196.199219 L 67.277344 193.917969 C 67.292969 193.539062 67.300781 193.160156 67.328125 192.78125 L 67.433594 191.644531 L 67.855469 187.109375 C 68.019531 185.601562 68.277344 184.105469 68.480469 182.601562 L 68.808594 180.351562 L 69.683594 175.890625 C 69.835938 175.152344 69.953125 174.402344 70.15625 173.671875 L 71.253906 169.265625 C 71.417969 168.527344 71.648438 167.804688 71.867188 167.082031 L 72.527344 164.910156 L 73.179688 162.738281 C 73.421875 162.023438 73.6875 161.316406 73.9375 160.601562 L 74.699219 158.46875 C 74.964844 157.761719 75.183594 157.035156 75.492188 156.34375 L 77.226562 152.160156 C 77.496094 151.457031 77.832031 150.78125 78.152344 150.097656 L 79.121094 148.050781 L 80.085938 146.007812 L 81.152344 144.011719 L 82.214844 142.015625 C 82.574219 141.351562 82.910156 140.679688 83.3125 140.042969 L 85.632812 136.164062 C 88.859375 131.074219 92.398438 126.195312 96.277344 121.601562 C 100.207031 117.046875 104.425781 112.765625 108.910156 108.78125 C 113.441406 104.855469 118.242188 101.257812 123.246094 97.980469 C 128.273438 94.742188 133.550781 91.925781 138.960938 89.421875 L 143.066406 87.652344 C 143.742188 87.339844 144.453125 87.109375 145.144531 86.839844 L 147.238281 86.058594 C 147.933594 85.800781 148.628906 85.527344 149.328125 85.28125 L 151.457031 84.605469 L 153.582031 83.925781 C 154.289062 83.695312 154.992188 83.464844 155.71875 83.289062 L 160.023438 82.144531 C 160.738281 81.9375 161.472656 81.816406 162.195312 81.652344 L 164.375 81.191406 L 166.554688 80.726562 L 168.753906 80.378906 L 170.949219 80.023438 C 171.683594 79.914062 172.410156 79.765625 173.152344 79.703125 L 177.574219 79.21875 C 177.941406 79.183594 178.308594 79.132812 178.679688 79.105469 L 179.789062 79.042969 L 182.011719 78.914062 L 184.226562 78.78125 C 184.96875 78.726562 185.710938 78.757812 186.453125 78.742188 L 190.898438 78.703125 L 191.417969 78.699219 C 191.46875 78.699219 191.519531 78.695312 191.570312 78.695312 L 185.203125 96.058594 L 225.800781 69.050781 L 185.203125 42.042969 L 191.386719 58.910156 C 191.226562 58.90625 191.0625 58.898438 190.898438 58.902344 L 185.742188 59.109375 C 184.882812 59.15625 184.023438 59.15625 183.164062 59.242188 L 180.59375 59.472656 L 178.027344 59.707031 L 176.742188 59.828125 C 176.316406 59.871094 175.890625 59.941406 175.464844 60 L 170.359375 60.726562 C 169.507812 60.828125 168.667969 61.023438 167.820312 61.175781 L 165.289062 61.667969 L 162.761719 62.160156 L 160.257812 62.773438 L 157.757812 63.390625 C 156.925781 63.605469 156.082031 63.78125 155.265625 64.042969 L 150.335938 65.523438 C 149.507812 65.757812 148.699219 66.046875 147.894531 66.335938 L 145.46875 67.195312 L 143.046875 68.058594 C 142.246094 68.371094 141.457031 68.707031 140.664062 69.03125 L 138.289062 70.007812 C 137.5 70.34375 136.695312 70.640625 135.925781 71.019531 L 131.277344 73.207031 C 125.15625 76.273438 119.226562 79.703125 113.605469 83.585938 C 108.011719 87.503906 102.683594 91.777344 97.683594 96.40625 C 92.734375 101.089844 88.113281 106.097656 83.84375 111.386719 C 79.625 116.71875 75.8125 122.355469 72.371094 128.199219 L 69.902344 132.644531 C 69.476562 133.378906 69.117188 134.148438 68.738281 134.90625 L 67.613281 137.183594 L 66.496094 139.464844 L 65.484375 141.796875 L 64.472656 144.125 C 64.132812 144.902344 63.789062 145.675781 63.503906 146.472656 L 61.714844 151.222656 C 61.398438 152.007812 61.175781 152.828125 60.90625 153.628906 L 60.128906 156.042969 C 59.875 156.847656 59.605469 157.652344 59.363281 158.460938 L 58.050781 163.359375 C 57.832031 164.171875 57.605469 164.988281 57.445312 165.816406 L 56.378906 170.769531 C 56.1875 171.589844 56.078125 172.429688 55.933594 173.257812 L 55.527344 175.757812 L 55.121094 178.253906 L 54.835938 180.765625 C 54.660156 182.441406 54.433594 184.113281 54.304688 185.792969 L 54 190.832031 L 53.925781 192.09375 C 53.910156 192.511719 53.914062 192.933594 53.90625 193.355469 L 53.878906 195.875 C 53.773438 199.238281 54 202.597656 54.121094 205.953125 C 54.238281 207.628906 54.414062 209.300781 54.5625 210.972656 C 54.644531 211.804688 54.703125 212.644531 54.804688 213.476562 L 55.160156 215.96875 L 55.515625 218.464844 C 55.636719 219.292969 55.742188 220.125 55.917969 220.949219 L 56.878906 225.886719 C 57.023438 226.714844 57.242188 227.523438 57.4375 228.339844 L 58.042969 230.78125 L 58.644531 233.222656 L 59.363281 235.628906 L 60.085938 238.039062 C 60.339844 238.835938 60.542969 239.648438 60.84375 240.433594 L 62.523438 245.164062 C 62.792969 245.957031 63.113281 246.730469 63.4375 247.503906 L 64.390625 249.824219 L 65.347656 252.140625 L 66.410156 254.414062 L 67.480469 256.683594 C 67.839844 257.433594 68.171875 258.203125 68.582031 258.933594 L 70.933594 263.355469 C 74.214844 269.167969 77.851562 274.777344 81.898438 280.070312 C 85.984375 285.332031 90.417969 290.308594 95.15625 294.96875 C 99.960938 299.5625 105.0625 303.824219 110.425781 307.726562 C 115.816406 311.589844 121.5 315.023438 127.359375 318.097656 L 131.808594 320.289062 C 132.542969 320.671875 133.3125 320.976562 134.066406 321.308594 L 136.34375 322.296875 L 138.621094 323.273438 L 140.9375 324.148438 L 143.257812 325.023438 C 144.027344 325.3125 144.800781 325.609375 145.589844 325.847656 L 150.304688 327.363281 C 151.085938 327.628906 151.890625 327.808594 152.6875 328.03125 L 155.074219 328.671875 L 157.46875 329.300781 L 159.882812 329.820312 L 162.300781 330.339844 C 163.105469 330.507812 163.910156 330.695312 164.726562 330.8125 L 169.601562 331.605469 C 170.410156 331.753906 171.230469 331.828125 172.046875 331.921875 L 174.5 332.195312 L 176.953125 332.464844 C 177.769531 332.542969 178.589844 332.574219 179.410156 332.628906 C 181.054688 332.71875 182.691406 332.84375 184.332031 332.90625 C 187.617188 332.925781 190.898438 333.042969 194.175781 332.835938 L 196.632812 332.738281 C 197.042969 332.71875 197.453125 332.707031 197.863281 332.679688 L 199.089844 332.570312 L 203.984375 332.117188 C 205.613281 331.941406 207.234375 331.671875 208.855469 331.453125 L 211.285156 331.097656 L 213.695312 330.628906 L 216.109375 330.160156 C 216.910156 329.996094 217.71875 329.867188 218.507812 329.652344 L 223.273438 328.472656 C 224.070312 328.292969 224.851562 328.050781 225.636719 327.8125 L 227.984375 327.105469 L 230.328125 326.398438 C 231.105469 326.140625 231.871094 325.855469 232.640625 325.585938 L 234.949219 324.761719 C 235.714844 324.476562 236.496094 324.238281 237.246094 323.910156 L 241.769531 322.042969 C 242.53125 321.746094 243.265625 321.390625 244.003906 321.039062 L 246.21875 320 L 248.425781 318.957031 L 250.589844 317.808594 L 252.746094 316.660156 C 253.464844 316.277344 254.191406 315.910156 254.882812 315.476562 L 259.078125 312.976562 C 264.582031 309.5 269.859375 305.679688 274.828125 301.496094 C 279.753906 297.261719 284.390625 292.707031 288.699219 287.867188 C 292.949219 282.976562 296.847656 277.792969 300.394531 272.390625 C 303.902344 266.957031 306.960938 261.257812 309.671875 255.40625 L 311.59375 250.96875 C 311.929688 250.238281 312.183594 249.46875 312.476562 248.71875 L 313.328125 246.457031 C 313.609375 245.703125 313.902344 244.953125 314.167969 244.195312 L 315.644531 239.59375 C 315.890625 238.832031 316.144531 238.066406 316.335938 237.285156 L 317.578125 232.621094 C 317.804688 231.851562 317.9375 231.058594 318.117188 230.273438 L 318.621094 227.914062 L 319.121094 225.558594 L 319.507812 223.183594 L 319.890625 220.804688 C 320.011719 220.011719 320.171875 219.222656 320.242188 218.421875 L 320.769531 213.640625 C 320.8125 213.242188 320.867188 212.84375 320.894531 212.445312 L 320.96875 211.242188 L 321.113281 208.84375 L 321.253906 206.441406 C 321.3125 205.644531 321.285156 204.839844 321.304688 204.039062 L 321.347656 199.238281 L 321.148438 204.035156 " fill-opacity="1" fill-rule="nonzero"/></g><path fill="#ffffff" d="M 194.363281 116.820312 L 194.363281 103.453125 C 194.363281 101.402344 192.699219 99.742188 190.648438 99.742188 C 188.597656 99.742188 186.9375 101.402344 186.9375 103.453125 L 186.9375 116.820312 C 186.9375 118.871094 188.597656 120.53125 190.648438 120.53125 C 192.699219 120.53125 194.363281 118.871094 194.363281 116.820312 " fill-opacity="1" fill-rule="nonzero"/><path fill="#ffffff" d="M 149.472656 130.460938 C 149.890625 130.460938 150.316406 130.351562 150.707031 130.128906 C 151.890625 129.445312 152.296875 127.933594 151.613281 126.746094 L 144.929688 115.171875 C 144.246094 113.988281 142.734375 113.582031 141.550781 114.265625 C 140.363281 114.949219 139.960938 116.464844 140.640625 117.648438 L 147.324219 129.222656 C 147.785156 130.015625 148.617188 130.460938 149.472656 130.460938 " fill-opacity="1" fill-rule="nonzero"/><path fill="#ffffff" d="M 118.152344 160.386719 C 118.542969 160.613281 118.964844 160.71875 119.386719 160.71875 C 120.242188 160.71875 121.074219 160.273438 121.53125 159.480469 C 122.21875 158.296875 121.8125 156.78125 120.628906 156.097656 L 109.050781 149.417969 C 107.867188 148.734375 106.355469 149.140625 105.667969 150.324219 C 104.988281 151.507812 105.390625 153.019531 106.578125 153.703125 L 118.152344 160.386719 " fill-opacity="1" fill-rule="nonzero"/><path fill="#ffffff" d="M 91.390625 199.484375 C 91.390625 201.535156 93.054688 203.199219 95.101562 203.199219 L 108.46875 203.199219 C 110.519531 203.199219 112.183594 201.535156 112.183594 199.484375 C 112.183594 197.433594 110.519531 195.773438 108.46875 195.773438 L 95.101562 195.773438 C 93.054688 195.773438 91.390625 197.433594 91.390625 199.484375 " fill-opacity="1" fill-rule="nonzero"/><path fill="#ffffff" d="M 108.0625 249.820312 C 108.484375 249.820312 108.910156 249.710938 109.300781 249.488281 L 120.875 242.804688 C 122.058594 242.121094 122.464844 240.605469 121.78125 239.421875 C 121.097656 238.238281 119.582031 237.835938 118.398438 238.515625 L 106.824219 245.199219 C 105.640625 245.882812 105.234375 247.398438 105.917969 248.582031 C 106.375 249.375 107.207031 249.820312 108.0625 249.820312 " fill-opacity="1" fill-rule="nonzero"/><path fill="#ffffff" d="M 147.753906 269.5 L 141.070312 281.074219 C 140.386719 282.257812 140.792969 283.773438 141.976562 284.457031 C 142.367188 284.679688 142.792969 284.789062 143.214844 284.789062 C 144.066406 284.789062 144.902344 284.34375 145.359375 283.550781 L 152.042969 271.976562 C 152.726562 270.792969 152.320312 269.277344 151.136719 268.59375 C 149.953125 267.910156 148.4375 268.316406 147.753906 269.5 " fill-opacity="1" fill-rule="nonzero"/><path fill="#ffffff" d="M 191.144531 298.734375 C 193.195312 298.734375 194.859375 297.070312 194.859375 295.019531 L 194.859375 281.65625 C 194.859375 279.605469 193.195312 277.941406 191.144531 277.941406 C 189.09375 277.941406 187.433594 279.605469 187.433594 281.65625 L 187.433594 295.019531 C 187.433594 297.070312 189.09375 298.734375 191.144531 298.734375 " fill-opacity="1" fill-rule="nonzero"/><path fill="#ffffff" d="M 231.085938 268.347656 C 229.902344 269.03125 229.5 270.542969 230.183594 271.726562 L 236.863281 283.300781 C 237.324219 284.097656 238.15625 284.539062 239.011719 284.539062 C 239.429688 284.539062 239.855469 284.433594 240.246094 284.207031 C 241.429688 283.523438 241.835938 282.011719 241.152344 280.828125 L 234.46875 269.253906 C 233.785156 268.070312 232.269531 267.660156 231.085938 268.347656 " fill-opacity="1" fill-rule="nonzero"/><path fill="#ffffff" d="M 263.644531 238.089844 C 262.457031 237.402344 260.945312 237.8125 260.261719 238.996094 C 259.578125 240.179688 259.984375 241.691406 261.167969 242.375 L 272.746094 249.058594 C 273.132812 249.28125 273.558594 249.390625 273.980469 249.390625 C 274.835938 249.390625 275.667969 248.945312 276.125 248.152344 C 276.808594 246.96875 276.402344 245.453125 275.21875 244.773438 L 263.644531 238.089844 " fill-opacity="1" fill-rule="nonzero"/><path fill="#ffffff" d="M 269.613281 198.988281 C 269.613281 201.039062 271.273438 202.703125 273.324219 202.703125 L 286.691406 202.703125 C 288.742188 202.703125 290.40625 201.039062 290.40625 198.988281 C 290.40625 196.9375 288.742188 195.277344 286.691406 195.277344 L 273.324219 195.277344 C 271.273438 195.277344 269.613281 196.9375 269.613281 198.988281 " fill-opacity="1" fill-rule="nonzero"/><path fill="#ffffff" d="M 262.160156 160.289062 C 262.582031 160.289062 263.007812 160.183594 263.398438 159.957031 L 274.972656 153.273438 C 276.15625 152.589844 276.5625 151.078125 275.878906 149.894531 C 275.195312 148.710938 273.679688 148.304688 272.496094 148.988281 L 260.921875 155.671875 C 259.738281 156.355469 259.332031 157.867188 260.015625 159.050781 C 260.472656 159.84375 261.304688 160.289062 262.160156 160.289062 " fill-opacity="1" fill-rule="nonzero"/><path fill="#ffffff" d="M 230.660156 129.878906 C 231.050781 130.105469 231.476562 130.210938 231.894531 130.210938 C 232.75 130.210938 233.582031 129.769531 234.039062 128.976562 L 240.722656 117.402344 C 241.40625 116.214844 241.003906 114.703125 239.820312 114.019531 C 238.632812 113.335938 237.121094 113.742188 236.4375 114.925781 L 229.753906 126.5 C 229.070312 127.683594 229.476562 129.199219 230.660156 129.878906 " fill-opacity="1" fill-rule="nonzero"/><path fill="#ffffff" d="M 159.488281 221.839844 L 140.691406 221.839844 C 141.191406 216.660156 144.941406 210.332031 149.515625 204.171875 C 154.917969 196.894531 158.246094 192.535156 158.246094 182.234375 C 158.246094 172.0625 155.066406 165.175781 143.96875 165.175781 C 131.886719 165.175781 129.46875 173.570312 129.46875 181.023438 L 129.46875 184.6875 L 138.921875 184.6875 L 138.921875 181.3125 C 138.921875 176.191406 140.210938 173.730469 143.507812 173.730469 C 147.242188 173.730469 147.96875 176.34375 147.96875 182.859375 C 147.96875 190.035156 146.097656 192.402344 140.75 199.914062 C 134.167969 209.230469 129.339844 217.167969 129.253906 229.433594 L 129.253906 230.65625 L 159.488281 230.65625 L 159.488281 221.839844 " fill-opacity="1" fill-rule="nonzero"/><path fill="#ffffff" d="M 170.90625 206.164062 C 174.097656 195.582031 176.953125 185.792969 179.753906 175.175781 L 179.855469 175.175781 C 179.742188 181.636719 179.46875 188.199219 179.46875 194.671875 L 179.46875 206.164062 Z M 188.84375 230.65625 L 188.84375 214.539062 L 193.691406 214.539062 L 193.691406 206.164062 L 188.84375 206.164062 L 188.84375 165.972656 L 175.09375 165.972656 L 161.230469 206.949219 L 161.230469 214.539062 L 179.46875 214.539062 L 179.46875 230.65625 L 188.84375 230.65625 " fill-opacity="1" fill-rule="nonzero"/><path fill="#ffffff" d="M 203.667969 233.640625 L 219.117188 164.183594 L 211.414062 164.183594 L 195.882812 233.640625 L 203.667969 233.640625 " fill-opacity="1" fill-rule="nonzero"/><path fill="#ffffff" d="M 250.027344 165.972656 L 220.933594 165.972656 L 220.933594 174.976562 L 239.648438 174.976562 C 232.757812 187.894531 225.6875 209.238281 223.347656 230.65625 L 233.789062 230.65625 C 236.476562 207.816406 242.503906 188.175781 250.027344 173.742188 L 250.027344 165.972656 " fill-opacity="1" fill-rule="nonzero"/></svg>