<svg xmlns="http://www.w3.org/2000/svg" xmlns:xlink="http://www.w3.org/1999/xlink" width="500" zoomAndPan="magnify" viewBox="0 0 375 374.999991" height="500" preserveAspectRatio="xMidYMid meet" version="1.0"><defs><clipPath id="2ea1f5fdc9"><path d="M 40.195312 23.828125 L 334.945312 23.828125 L 334.945312 350.828125 L 40.195312 350.828125 Z M 40.195312 23.828125 " clip-rule="nonzero"/></clipPath></defs><g clip-path="url(#2ea1f5fdc9)"><path fill="#11406d" d="M 261.75 188.3125 L 244.394531 170.980469 L 164.484375 250.765625 L 129.769531 216.105469 L 112.410156 233.433594 L 164.484375 285.425781 Z M 302.195312 56.535156 L 285.820312 56.535156 L 285.820312 23.835938 L 253.070312 23.835938 L 253.070312 56.535156 L 122.070312 56.535156 L 122.070312 23.835938 L 89.320312 23.835938 L 89.320312 56.535156 L 72.945312 56.535156 C 54.851562 56.535156 40.359375 71.167969 40.359375 89.234375 L 40.195312 318.125 C 40.195312 336.191406 54.851562 350.824219 72.945312 350.824219 L 302.195312 350.824219 C 320.292969 350.824219 334.945312 336.191406 334.945312 318.125 L 334.945312 89.234375 C 334.945312 71.167969 320.292969 56.535156 302.195312 56.535156 Z M 302.195312 318.125 L 72.945312 318.125 L 72.945312 138.28125 L 302.195312 138.28125 Z M 302.195312 318.125 " fill-opacity="1" fill-rule="nonzero"/></g></svg>