<svg xmlns="http://www.w3.org/2000/svg" xmlns:xlink="http://www.w3.org/1999/xlink" width="500" zoomAndPan="magnify" viewBox="0 0 375 374.999991" height="500" preserveAspectRatio="xMidYMid meet" version="1.0"><defs><clipPath id="03ae5bc00d"><path d="M 50 225 L 139 225 L 139 312.757812 L 50 312.757812 Z M 50 225 " clip-rule="nonzero"/></clipPath><clipPath id="052506a73d"><path d="M 238 225 L 326 225 L 326 312.757812 L 238 312.757812 Z M 238 225 " clip-rule="nonzero"/></clipPath><clipPath id="667aea0d21"><path d="M 12 62.257812 L 264 62.257812 L 264 263 L 12 263 Z M 12 62.257812 " clip-rule="nonzero"/></clipPath><clipPath id="65d1203ae9"><path d="M 200 99 L 363.527344 99 L 363.527344 263 L 200 263 Z M 200 99 " clip-rule="nonzero"/></clipPath></defs><g clip-path="url(#03ae5bc00d)"><path fill="#11406d" d="M 94.394531 312.589844 C 92.960938 312.589844 91.527344 312.519531 90.101562 312.378906 C 88.671875 312.238281 87.253906 312.027344 85.847656 311.746094 C 84.4375 311.46875 83.050781 311.121094 81.675781 310.703125 C 80.304688 310.285156 78.953125 309.804688 77.628906 309.257812 C 76.300781 308.707031 75.007812 308.09375 73.742188 307.417969 C 72.476562 306.742188 71.246094 306.007812 70.054688 305.210938 C 68.859375 304.414062 67.710938 303.5625 66.601562 302.652344 C 65.492188 301.742188 64.429688 300.78125 63.414062 299.765625 C 62.398438 298.753906 61.4375 297.691406 60.527344 296.582031 C 59.617188 295.472656 58.761719 294.324219 57.964844 293.132812 C 57.167969 291.941406 56.429688 290.710938 55.753906 289.445312 C 55.078125 288.183594 54.464844 286.886719 53.917969 285.5625 C 53.367188 284.238281 52.886719 282.890625 52.46875 281.519531 C 52.050781 280.144531 51.703125 278.757812 51.421875 277.351562 C 51.144531 275.945312 50.933594 274.527344 50.792969 273.101562 C 50.652344 271.675781 50.582031 270.242188 50.582031 268.808594 C 50.582031 267.375 50.652344 265.945312 50.792969 264.519531 C 50.933594 263.09375 51.144531 261.675781 51.421875 260.269531 C 51.703125 258.863281 52.050781 257.472656 52.46875 256.101562 C 52.886719 254.730469 53.367188 253.382812 53.917969 252.054688 C 54.464844 250.730469 55.078125 249.4375 55.753906 248.171875 C 56.429688 246.910156 57.167969 245.679688 57.964844 244.488281 C 58.761719 243.296875 59.617188 242.144531 60.527344 241.039062 C 61.4375 239.929688 62.398438 238.867188 63.414062 237.855469 C 64.429688 236.839844 65.492188 235.878906 66.601562 234.96875 C 67.710938 234.058594 68.859375 233.207031 70.054688 232.410156 C 71.246094 231.613281 72.476562 230.875 73.742188 230.199219 C 75.007812 229.523438 76.300781 228.914062 77.628906 228.363281 C 78.953125 227.816406 80.304688 227.332031 81.675781 226.917969 C 83.050781 226.5 84.4375 226.152344 85.847656 225.871094 C 87.253906 225.59375 88.671875 225.382812 90.101562 225.242188 C 91.527344 225.101562 92.960938 225.03125 94.394531 225.03125 C 95.828125 225.03125 97.261719 225.101562 98.6875 225.242188 C 100.117188 225.382812 101.535156 225.59375 102.941406 225.871094 C 104.347656 226.152344 105.738281 226.5 107.113281 226.917969 C 108.484375 227.332031 109.835938 227.816406 111.160156 228.363281 C 112.484375 228.914062 113.78125 229.523438 115.046875 230.199219 C 116.3125 230.875 117.542969 231.613281 118.734375 232.410156 C 119.929688 233.207031 121.078125 234.058594 122.1875 234.96875 C 123.296875 235.878906 124.359375 236.839844 125.375 237.855469 C 126.386719 238.867188 127.351562 239.929688 128.261719 241.039062 C 129.171875 242.144531 130.027344 243.296875 130.824219 244.488281 C 131.621094 245.679688 132.355469 246.910156 133.03125 248.171875 C 133.710938 249.4375 134.320312 250.730469 134.871094 252.054688 C 135.421875 253.382812 135.902344 254.730469 136.320312 256.101562 C 136.734375 257.472656 137.085938 258.863281 137.363281 260.269531 C 137.644531 261.675781 137.855469 263.09375 137.996094 264.519531 C 138.136719 265.945312 138.207031 267.375 138.207031 268.808594 C 138.207031 270.242188 138.136719 271.675781 137.996094 273.101562 C 137.855469 274.527344 137.644531 275.945312 137.363281 277.351562 C 137.085938 278.757812 136.734375 280.144531 136.320312 281.519531 C 135.902344 282.890625 135.421875 284.238281 134.871094 285.5625 C 134.320312 286.886719 133.710938 288.183594 133.03125 289.445312 C 132.355469 290.710938 131.621094 291.941406 130.824219 293.132812 C 130.027344 294.324219 129.171875 295.472656 128.261719 296.582031 C 127.351562 297.691406 126.386719 298.753906 125.375 299.765625 C 124.359375 300.78125 123.296875 301.742188 122.1875 302.652344 C 121.078125 303.5625 119.929688 304.414062 118.734375 305.210938 C 117.542969 306.007812 116.3125 306.742188 115.046875 307.417969 C 113.78125 308.09375 112.484375 308.707031 111.160156 309.253906 C 109.835938 309.804688 108.484375 310.285156 107.113281 310.703125 C 105.738281 311.121094 104.347656 311.46875 102.941406 311.746094 C 101.535156 312.027344 100.117188 312.238281 98.6875 312.378906 C 97.261719 312.519531 95.828125 312.589844 94.394531 312.589844 Z M 94.394531 250.046875 C 93.777344 250.046875 93.164062 250.078125 92.554688 250.136719 C 91.941406 250.199219 91.335938 250.289062 90.730469 250.410156 C 90.128906 250.527344 89.53125 250.675781 88.945312 250.855469 C 88.355469 251.035156 87.777344 251.242188 87.207031 251.476562 C 86.640625 251.710938 86.085938 251.972656 85.542969 252.261719 C 85 252.554688 84.472656 252.867188 83.960938 253.210938 C 83.449219 253.550781 82.957031 253.917969 82.480469 254.304688 C 82.007812 254.695312 81.550781 255.109375 81.117188 255.542969 C 80.683594 255.976562 80.269531 256.433594 79.878906 256.90625 C 79.488281 257.382812 79.125 257.875 78.78125 258.386719 C 78.441406 258.898438 78.125 259.421875 77.835938 259.964844 C 77.542969 260.507812 77.28125 261.0625 77.046875 261.628906 C 76.8125 262.199219 76.605469 262.777344 76.425781 263.363281 C 76.246094 263.953125 76.097656 264.546875 75.976562 265.148438 C 75.859375 265.753906 75.769531 266.359375 75.707031 266.972656 C 75.648438 267.582031 75.617188 268.195312 75.617188 268.808594 C 75.617188 269.425781 75.648438 270.039062 75.707031 270.648438 C 75.769531 271.261719 75.859375 271.867188 75.976562 272.46875 C 76.097656 273.074219 76.246094 273.667969 76.425781 274.257812 C 76.605469 274.84375 76.8125 275.421875 77.046875 275.988281 C 77.28125 276.558594 77.542969 277.113281 77.835938 277.65625 C 78.125 278.195312 78.441406 278.722656 78.78125 279.234375 C 79.125 279.746094 79.488281 280.238281 79.878906 280.710938 C 80.269531 281.1875 80.683594 281.640625 81.117188 282.078125 C 81.550781 282.511719 82.007812 282.921875 82.480469 283.3125 C 82.957031 283.703125 83.449219 284.070312 83.960938 284.410156 C 84.472656 284.75 85 285.066406 85.542969 285.355469 C 86.085938 285.644531 86.640625 285.910156 87.207031 286.144531 C 87.777344 286.378906 88.355469 286.585938 88.945312 286.765625 C 89.53125 286.941406 90.128906 287.089844 90.730469 287.210938 C 91.335938 287.332031 91.941406 287.421875 92.554688 287.480469 C 93.164062 287.542969 93.777344 287.570312 94.394531 287.570312 C 95.007812 287.570312 95.621094 287.542969 96.234375 287.480469 C 96.847656 287.421875 97.453125 287.332031 98.058594 287.210938 C 98.660156 287.089844 99.257812 286.941406 99.84375 286.765625 C 100.433594 286.585938 101.011719 286.378906 101.578125 286.144531 C 102.148438 285.910156 102.703125 285.644531 103.246094 285.355469 C 103.789062 285.066406 104.316406 284.75 104.824219 284.410156 C 105.335938 284.070312 105.832031 283.703125 106.304688 283.3125 C 106.78125 282.921875 107.234375 282.511719 107.671875 282.078125 C 108.105469 281.640625 108.519531 281.1875 108.910156 280.710938 C 109.296875 280.238281 109.664062 279.746094 110.007812 279.234375 C 110.347656 278.722656 110.664062 278.195312 110.953125 277.65625 C 111.242188 277.113281 111.507812 276.558594 111.742188 275.988281 C 111.976562 275.421875 112.183594 274.84375 112.363281 274.257812 C 112.539062 273.667969 112.691406 273.074219 112.808594 272.46875 C 112.929688 271.867188 113.019531 271.261719 113.082031 270.648438 C 113.140625 270.039062 113.171875 269.425781 113.171875 268.808594 C 113.171875 268.195312 113.140625 267.582031 113.082031 266.972656 C 113.019531 266.359375 112.929688 265.753906 112.808594 265.148438 C 112.691406 264.546875 112.539062 263.953125 112.363281 263.363281 C 112.183594 262.777344 111.976562 262.199219 111.742188 261.628906 C 111.507812 261.0625 111.242188 260.507812 110.953125 259.964844 C 110.664062 259.421875 110.347656 258.898438 110.007812 258.386719 C 109.664062 257.875 109.296875 257.382812 108.910156 256.90625 C 108.519531 256.433594 108.105469 255.976562 107.671875 255.542969 C 107.234375 255.109375 106.78125 254.695312 106.304688 254.304688 C 105.832031 253.917969 105.335938 253.550781 104.824219 253.210938 C 104.316406 252.867188 103.789062 252.554688 103.246094 252.261719 C 102.703125 251.972656 102.148438 251.710938 101.578125 251.476562 C 101.011719 251.242188 100.433594 251.035156 99.84375 250.855469 C 99.257812 250.675781 98.660156 250.527344 98.058594 250.410156 C 97.453125 250.289062 96.847656 250.199219 96.234375 250.136719 C 95.621094 250.078125 95.007812 250.046875 94.394531 250.046875 Z M 94.394531 250.046875 " fill-opacity="1" fill-rule="nonzero"/></g><g clip-path="url(#052506a73d)"><path fill="#11406d" d="M 282.160156 312.589844 C 280.726562 312.589844 279.292969 312.519531 277.867188 312.378906 C 276.4375 312.238281 275.019531 312.027344 273.613281 311.746094 C 272.207031 311.46875 270.816406 311.121094 269.441406 310.703125 C 268.070312 310.285156 266.71875 309.804688 265.394531 309.257812 C 264.070312 308.707031 262.773438 308.09375 261.507812 307.417969 C 260.242188 306.742188 259.011719 306.007812 257.820312 305.210938 C 256.628906 304.414062 255.476562 303.5625 254.367188 302.652344 C 253.257812 301.742188 252.195312 300.78125 251.179688 299.765625 C 250.167969 298.753906 249.203125 297.691406 248.292969 296.582031 C 247.382812 295.472656 246.53125 294.324219 245.730469 293.132812 C 244.933594 291.941406 244.199219 290.710938 243.523438 289.445312 C 242.84375 288.183594 242.234375 286.886719 241.683594 285.5625 C 241.132812 284.238281 240.652344 282.890625 240.234375 281.519531 C 239.820312 280.144531 239.46875 278.757812 239.191406 277.351562 C 238.910156 275.945312 238.699219 274.527344 238.558594 273.101562 C 238.417969 271.675781 238.347656 270.242188 238.347656 268.808594 C 238.347656 267.375 238.417969 265.945312 238.558594 264.519531 C 238.699219 263.09375 238.910156 261.675781 239.191406 260.269531 C 239.46875 258.863281 239.820312 257.472656 240.234375 256.101562 C 240.652344 254.730469 241.132812 253.382812 241.683594 252.054688 C 242.234375 250.730469 242.84375 249.4375 243.523438 248.171875 C 244.199219 246.910156 244.933594 245.679688 245.730469 244.488281 C 246.53125 243.296875 247.382812 242.144531 248.292969 241.039062 C 249.203125 239.929688 250.167969 238.867188 251.179688 237.855469 C 252.195312 236.839844 253.257812 235.878906 254.367188 234.96875 C 255.476562 234.058594 256.628906 233.207031 257.820312 232.410156 C 259.011719 231.613281 260.242188 230.875 261.507812 230.199219 C 262.773438 229.523438 264.070312 228.914062 265.394531 228.363281 C 266.71875 227.816406 268.070312 227.332031 269.441406 226.917969 C 270.816406 226.5 272.207031 226.152344 273.613281 225.871094 C 275.019531 225.59375 276.4375 225.382812 277.867188 225.242188 C 279.292969 225.101562 280.726562 225.03125 282.160156 225.03125 C 283.597656 225.03125 285.027344 225.101562 286.457031 225.242188 C 287.882812 225.382812 289.300781 225.59375 290.707031 225.871094 C 292.117188 226.152344 293.507812 226.5 294.878906 226.917969 C 296.253906 227.332031 297.601562 227.816406 298.925781 228.363281 C 300.253906 228.914062 301.546875 229.523438 302.8125 230.199219 C 304.078125 230.875 305.308594 231.613281 306.5 232.410156 C 307.695312 233.207031 308.847656 234.058594 309.957031 234.96875 C 311.0625 235.878906 312.125 236.839844 313.140625 237.855469 C 314.15625 238.867188 315.117188 239.929688 316.027344 241.039062 C 316.9375 242.144531 317.792969 243.296875 318.589844 244.488281 C 319.386719 245.679688 320.125 246.910156 320.800781 248.171875 C 321.476562 249.4375 322.089844 250.730469 322.636719 252.054688 C 323.1875 253.382812 323.671875 254.730469 324.085938 256.101562 C 324.503906 257.472656 324.851562 258.863281 325.132812 260.269531 C 325.410156 261.675781 325.621094 263.09375 325.761719 264.519531 C 325.902344 265.945312 325.972656 267.375 325.972656 268.808594 C 325.972656 270.242188 325.902344 271.675781 325.761719 273.101562 C 325.621094 274.527344 325.410156 275.945312 325.132812 277.351562 C 324.851562 278.757812 324.503906 280.144531 324.085938 281.519531 C 323.671875 282.890625 323.1875 284.238281 322.636719 285.5625 C 322.089844 286.886719 321.476562 288.183594 320.800781 289.445312 C 320.125 290.710938 319.386719 291.941406 318.589844 293.132812 C 317.792969 294.324219 316.9375 295.472656 316.027344 296.582031 C 315.117188 297.691406 314.15625 298.753906 313.140625 299.765625 C 312.125 300.78125 311.0625 301.742188 309.957031 302.652344 C 308.847656 303.5625 307.695312 304.414062 306.5 305.210938 C 305.308594 306.007812 304.078125 306.742188 302.8125 307.417969 C 301.546875 308.09375 300.253906 308.707031 298.925781 309.253906 C 297.601562 309.804688 296.253906 310.285156 294.878906 310.703125 C 293.507812 311.121094 292.117188 311.46875 290.707031 311.746094 C 289.300781 312.027344 287.882812 312.238281 286.457031 312.378906 C 285.027344 312.519531 283.597656 312.589844 282.160156 312.589844 Z M 282.160156 250.046875 C 281.546875 250.046875 280.933594 250.078125 280.320312 250.136719 C 279.707031 250.199219 279.101562 250.289062 278.496094 250.410156 C 277.894531 250.527344 277.300781 250.675781 276.710938 250.855469 C 276.121094 251.035156 275.542969 251.242188 274.976562 251.476562 C 274.40625 251.710938 273.851562 251.972656 273.308594 252.261719 C 272.765625 252.554688 272.242188 252.867188 271.730469 253.210938 C 271.21875 253.550781 270.722656 253.917969 270.25 254.304688 C 269.773438 254.695312 269.320312 255.109375 268.882812 255.542969 C 268.449219 255.976562 268.035156 256.433594 267.644531 256.90625 C 267.257812 257.382812 266.890625 257.875 266.546875 258.386719 C 266.207031 258.898438 265.890625 259.421875 265.601562 259.964844 C 265.3125 260.507812 265.050781 261.0625 264.8125 261.628906 C 264.578125 262.199219 264.371094 262.777344 264.191406 263.363281 C 264.015625 263.953125 263.863281 264.546875 263.746094 265.148438 C 263.625 265.753906 263.535156 266.359375 263.476562 266.972656 C 263.414062 267.582031 263.382812 268.195312 263.382812 268.808594 C 263.382812 269.425781 263.414062 270.039062 263.476562 270.648438 C 263.535156 271.261719 263.625 271.867188 263.746094 272.46875 C 263.863281 273.074219 264.015625 273.667969 264.191406 274.257812 C 264.371094 274.84375 264.578125 275.421875 264.8125 275.988281 C 265.050781 276.558594 265.3125 277.113281 265.601562 277.65625 C 265.890625 278.195312 266.207031 278.722656 266.546875 279.234375 C 266.890625 279.746094 267.257812 280.238281 267.644531 280.710938 C 268.035156 281.1875 268.449219 281.640625 268.882812 282.078125 C 269.320312 282.511719 269.773438 282.921875 270.25 283.3125 C 270.722656 283.703125 271.21875 284.070312 271.730469 284.410156 C 272.242188 284.75 272.765625 285.066406 273.308594 285.355469 C 273.851562 285.644531 274.40625 285.910156 274.976562 286.144531 C 275.542969 286.378906 276.121094 286.585938 276.710938 286.765625 C 277.300781 286.941406 277.894531 287.089844 278.496094 287.210938 C 279.101562 287.332031 279.707031 287.421875 280.320312 287.480469 C 280.933594 287.542969 281.546875 287.570312 282.160156 287.570312 C 282.777344 287.570312 283.390625 287.542969 284 287.480469 C 284.613281 287.421875 285.222656 287.332031 285.824219 287.210938 C 286.425781 287.089844 287.023438 286.941406 287.613281 286.765625 C 288.199219 286.585938 288.777344 286.378906 289.347656 286.144531 C 289.914062 285.910156 290.46875 285.644531 291.011719 285.355469 C 291.554688 285.066406 292.082031 284.75 292.59375 284.410156 C 293.105469 284.070312 293.597656 283.703125 294.074219 283.3125 C 294.546875 282.921875 295.003906 282.511719 295.4375 282.078125 C 295.871094 281.640625 296.285156 281.1875 296.675781 280.710938 C 297.066406 280.238281 297.429688 279.746094 297.773438 279.234375 C 298.113281 278.722656 298.429688 278.195312 298.71875 277.65625 C 299.011719 277.113281 299.273438 276.558594 299.507812 275.988281 C 299.742188 275.421875 299.949219 274.84375 300.128906 274.257812 C 300.308594 273.667969 300.457031 273.074219 300.578125 272.46875 C 300.695312 271.867188 300.785156 271.261719 300.847656 270.648438 C 300.90625 270.039062 300.9375 269.425781 300.9375 268.808594 C 300.9375 268.195312 300.90625 267.582031 300.847656 266.972656 C 300.785156 266.359375 300.695312 265.753906 300.578125 265.148438 C 300.457031 264.546875 300.308594 263.953125 300.128906 263.363281 C 299.949219 262.777344 299.742188 262.199219 299.507812 261.628906 C 299.273438 261.0625 299.011719 260.507812 298.71875 259.964844 C 298.429688 259.421875 298.113281 258.898438 297.773438 258.386719 C 297.429688 257.875 297.066406 257.382812 296.675781 256.90625 C 296.285156 256.433594 295.871094 255.976562 295.4375 255.542969 C 295.003906 255.109375 294.546875 254.695312 294.074219 254.304688 C 293.597656 253.917969 293.105469 253.550781 292.59375 253.210938 C 292.082031 252.867188 291.554688 252.554688 291.011719 252.261719 C 290.46875 251.972656 289.914062 251.710938 289.347656 251.476562 C 288.777344 251.242188 288.199219 251.035156 287.613281 250.855469 C 287.023438 250.675781 286.425781 250.527344 285.824219 250.410156 C 285.222656 250.289062 284.613281 250.199219 284 250.136719 C 283.390625 250.078125 282.777344 250.046875 282.160156 250.046875 Z M 282.160156 250.046875 " fill-opacity="1" fill-rule="nonzero"/></g><g clip-path="url(#667aea0d21)"><path fill="#11406d" d="M 213.3125 262.554688 L 174.257812 262.554688 C 173.4375 262.554688 172.621094 262.476562 171.816406 262.316406 C 171.007812 262.15625 170.226562 261.917969 169.46875 261.605469 C 168.707031 261.289062 167.988281 260.902344 167.304688 260.449219 C 166.621094 259.992188 165.988281 259.472656 165.40625 258.890625 C 164.824219 258.3125 164.304688 257.679688 163.847656 256.996094 C 163.394531 256.3125 163.007812 255.59375 162.691406 254.835938 C 162.378906 254.074219 162.140625 253.292969 161.980469 252.488281 C 161.820312 251.683594 161.738281 250.867188 161.738281 250.046875 C 161.738281 249.226562 161.820312 248.414062 161.980469 247.609375 C 162.140625 246.800781 162.378906 246.019531 162.691406 245.261719 C 163.007812 244.503906 163.394531 243.78125 163.847656 243.097656 C 164.304688 242.414062 164.824219 241.785156 165.40625 241.203125 C 165.988281 240.621094 166.621094 240.105469 167.304688 239.648438 C 167.988281 239.191406 168.707031 238.804688 169.46875 238.492188 C 170.226562 238.175781 171.007812 237.941406 171.816406 237.78125 C 172.621094 237.621094 173.4375 237.539062 174.257812 237.539062 L 203.171875 237.539062 L 235.34375 87.441406 L 72.613281 87.441406 L 41.066406 237.539062 L 49.457031 237.539062 C 50.277344 237.539062 51.089844 237.621094 51.898438 237.78125 C 52.703125 237.941406 53.484375 238.175781 54.246094 238.492188 C 55.003906 238.804688 55.726562 239.191406 56.410156 239.648438 C 57.09375 240.105469 57.726562 240.621094 58.304688 241.203125 C 58.886719 241.785156 59.40625 242.414062 59.863281 243.097656 C 60.320312 243.78125 60.707031 244.503906 61.019531 245.261719 C 61.335938 246.019531 61.570312 246.800781 61.734375 247.609375 C 61.894531 248.414062 61.972656 249.226562 61.972656 250.046875 C 61.972656 250.867188 61.894531 251.683594 61.730469 252.488281 C 61.570312 253.292969 61.335938 254.074219 61.019531 254.835938 C 60.707031 255.59375 60.320312 256.3125 59.863281 256.996094 C 59.40625 257.679688 58.886719 258.3125 58.304688 258.890625 C 57.726562 259.472656 57.09375 259.992188 56.410156 260.449219 C 55.726562 260.902344 55.003906 261.289062 54.246094 261.605469 C 53.484375 261.917969 52.703125 262.15625 51.898438 262.316406 C 51.089844 262.476562 50.277344 262.554688 49.457031 262.554688 L 25.546875 262.554688 C 25.074219 262.566406 24.605469 262.550781 24.136719 262.507812 C 23.667969 262.464844 23.199219 262.398438 22.738281 262.300781 C 22.277344 262.207031 21.824219 262.085938 21.375 261.9375 C 20.925781 261.792969 20.488281 261.621094 20.0625 261.425781 C 19.632812 261.230469 19.214844 261.011719 18.8125 260.769531 C 18.410156 260.527344 18.019531 260.261719 17.644531 259.972656 C 17.273438 259.6875 16.914062 259.378906 16.578125 259.054688 C 16.238281 258.726562 15.917969 258.382812 15.617188 258.019531 C 15.316406 257.65625 15.039062 257.277344 14.78125 256.882812 C 14.523438 256.488281 14.289062 256.082031 14.078125 255.660156 C 13.867188 255.238281 13.679688 254.808594 13.515625 254.367188 C 13.355469 253.925781 13.21875 253.472656 13.105469 253.015625 C 12.992188 252.558594 12.910156 252.097656 12.847656 251.628906 C 12.789062 251.164062 12.757812 250.695312 12.75 250.222656 C 12.742188 249.753906 12.761719 249.28125 12.808594 248.8125 C 12.855469 248.347656 12.929688 247.882812 13.027344 247.421875 L 50.582031 72.308594 C 50.734375 71.601562 50.945312 70.914062 51.214844 70.246094 C 51.484375 69.574219 51.8125 68.933594 52.195312 68.320312 C 52.574219 67.707031 53.007812 67.132812 53.488281 66.59375 C 53.96875 66.054688 54.496094 65.5625 55.0625 65.117188 C 55.628906 64.667969 56.230469 64.273438 56.863281 63.929688 C 57.5 63.585938 58.160156 63.300781 58.84375 63.070312 C 59.53125 62.839844 60.230469 62.671875 60.945312 62.5625 C 61.660156 62.457031 62.378906 62.410156 63.097656 62.425781 L 250.867188 62.425781 C 251.335938 62.414062 251.808594 62.429688 252.277344 62.472656 C 252.746094 62.515625 253.210938 62.585938 253.671875 62.679688 C 254.132812 62.773438 254.589844 62.894531 255.039062 63.042969 C 255.484375 63.1875 255.921875 63.359375 256.351562 63.554688 C 256.78125 63.75 257.195312 63.972656 257.601562 64.214844 C 258.003906 64.457031 258.394531 64.722656 258.765625 65.007812 C 259.140625 65.292969 259.496094 65.601562 259.835938 65.929688 C 260.175781 66.253906 260.496094 66.601562 260.796875 66.960938 C 261.09375 67.324219 261.375 67.703125 261.632812 68.097656 C 261.890625 68.492188 262.125 68.902344 262.335938 69.320312 C 262.546875 69.742188 262.734375 70.175781 262.894531 70.617188 C 263.058594 71.058594 263.195312 71.507812 263.308594 71.964844 C 263.417969 72.421875 263.503906 72.882812 263.5625 73.351562 C 263.625 73.820312 263.65625 74.289062 263.664062 74.757812 C 263.667969 75.230469 263.648438 75.699219 263.601562 76.167969 C 263.554688 76.636719 263.484375 77.101562 263.382812 77.5625 L 225.832031 252.675781 C 225.679688 253.378906 225.46875 254.066406 225.199219 254.738281 C 224.925781 255.40625 224.601562 256.046875 224.21875 256.660156 C 223.835938 257.273438 223.40625 257.847656 222.925781 258.386719 C 222.441406 258.925781 221.917969 259.417969 221.351562 259.867188 C 220.785156 260.3125 220.183594 260.707031 219.546875 261.050781 C 218.914062 261.394531 218.253906 261.683594 217.566406 261.910156 C 216.882812 262.140625 216.183594 262.308594 215.46875 262.417969 C 214.753906 262.527344 214.035156 262.570312 213.3125 262.554688 Z M 213.3125 262.554688 " fill-opacity="1" fill-rule="nonzero"/></g><path fill="#11406d" d="M 174.132812 262.554688 L 119.429688 262.554688 C 118.609375 262.554688 117.792969 262.476562 116.988281 262.316406 C 116.179688 262.15625 115.398438 261.917969 114.640625 261.605469 C 113.878906 261.289062 113.160156 260.902344 112.476562 260.449219 C 111.792969 259.992188 111.160156 259.472656 110.578125 258.890625 C 109.996094 258.3125 109.476562 257.679688 109.019531 256.996094 C 108.566406 256.3125 108.179688 255.59375 107.863281 254.835938 C 107.550781 254.074219 107.3125 253.292969 107.152344 252.488281 C 106.992188 251.683594 106.910156 250.867188 106.910156 250.046875 C 106.910156 249.226562 106.992188 248.414062 107.152344 247.609375 C 107.3125 246.800781 107.550781 246.019531 107.863281 245.261719 C 108.179688 244.503906 108.566406 243.78125 109.019531 243.097656 C 109.476562 242.414062 109.996094 241.785156 110.578125 241.203125 C 111.160156 240.621094 111.792969 240.105469 112.476562 239.648438 C 113.160156 239.191406 113.878906 238.804688 114.640625 238.492188 C 115.398438 238.175781 116.179688 237.941406 116.988281 237.78125 C 117.792969 237.621094 118.609375 237.539062 119.429688 237.539062 L 174.132812 237.539062 C 174.953125 237.539062 175.769531 237.621094 176.574219 237.78125 C 177.378906 237.941406 178.164062 238.175781 178.921875 238.492188 C 179.683594 238.804688 180.402344 239.191406 181.085938 239.648438 C 181.769531 240.105469 182.402344 240.621094 182.984375 241.203125 C 183.566406 241.785156 184.082031 242.414062 184.539062 243.097656 C 184.996094 243.78125 185.382812 244.503906 185.699219 245.261719 C 186.011719 246.019531 186.25 246.800781 186.410156 247.609375 C 186.570312 248.414062 186.648438 249.226562 186.648438 250.046875 C 186.648438 250.867188 186.570312 251.683594 186.410156 252.488281 C 186.25 253.292969 186.011719 254.074219 185.699219 254.835938 C 185.382812 255.59375 184.996094 256.3125 184.539062 256.996094 C 184.082031 257.679688 183.566406 258.3125 182.984375 258.890625 C 182.402344 259.472656 181.769531 259.992188 181.085938 260.449219 C 180.402344 260.902344 179.683594 261.289062 178.921875 261.605469 C 178.164062 261.917969 177.378906 262.15625 176.574219 262.316406 C 175.769531 262.476562 174.953125 262.554688 174.132812 262.554688 Z M 174.132812 262.554688 " fill-opacity="1" fill-rule="nonzero"/><path fill="#11406d" d="M 69.359375 262.554688 L 49.457031 262.554688 C 48.632812 262.554688 47.820312 262.476562 47.011719 262.316406 C 46.207031 262.15625 45.425781 261.917969 44.664062 261.605469 C 43.90625 261.289062 43.183594 260.902344 42.5 260.449219 C 41.816406 259.992188 41.183594 259.472656 40.605469 258.890625 C 40.023438 258.3125 39.503906 257.679688 39.046875 256.996094 C 38.589844 256.3125 38.203125 255.59375 37.890625 254.835938 C 37.574219 254.074219 37.339844 253.292969 37.179688 252.488281 C 37.015625 251.683594 36.9375 250.867188 36.9375 250.046875 C 36.9375 249.226562 37.015625 248.414062 37.179688 247.609375 C 37.339844 246.800781 37.574219 246.019531 37.890625 245.261719 C 38.203125 244.503906 38.589844 243.78125 39.046875 243.097656 C 39.503906 242.414062 40.023438 241.785156 40.605469 241.203125 C 41.183594 240.621094 41.816406 240.105469 42.5 239.648438 C 43.183594 239.191406 43.90625 238.804688 44.664062 238.492188 C 45.425781 238.175781 46.207031 237.941406 47.011719 237.78125 C 47.820312 237.621094 48.632812 237.539062 49.457031 237.539062 L 69.359375 237.539062 C 70.179688 237.539062 70.996094 237.621094 71.800781 237.78125 C 72.605469 237.941406 73.390625 238.175781 74.148438 238.492188 C 74.90625 238.804688 75.628906 239.191406 76.3125 239.648438 C 76.996094 240.105469 77.628906 240.621094 78.210938 241.203125 C 78.792969 241.785156 79.308594 242.414062 79.765625 243.097656 C 80.222656 243.78125 80.609375 244.503906 80.921875 245.261719 C 81.238281 246.019531 81.476562 246.800781 81.636719 247.609375 C 81.796875 248.414062 81.875 249.226562 81.875 250.046875 C 81.875 250.867188 81.796875 251.683594 81.636719 252.488281 C 81.476562 253.292969 81.238281 254.074219 80.921875 254.835938 C 80.609375 255.59375 80.222656 256.3125 79.765625 256.996094 C 79.308594 257.679688 78.792969 258.3125 78.210938 258.890625 C 77.628906 259.472656 76.996094 259.992188 76.3125 260.449219 C 75.628906 260.902344 74.90625 261.289062 74.148438 261.605469 C 73.390625 261.917969 72.605469 262.15625 71.800781 262.316406 C 70.996094 262.476562 70.179688 262.554688 69.359375 262.554688 Z M 69.359375 262.554688 " fill-opacity="1" fill-rule="nonzero"/><g clip-path="url(#65d1203ae9)"><path fill="#11406d" d="M 338.492188 262.554688 L 307.195312 262.554688 C 306.375 262.554688 305.5625 262.476562 304.753906 262.316406 C 303.949219 262.15625 303.164062 261.917969 302.40625 261.605469 C 301.648438 261.289062 300.925781 260.902344 300.242188 260.449219 C 299.558594 259.992188 298.925781 259.472656 298.34375 258.890625 C 297.765625 258.3125 297.246094 257.679688 296.789062 256.996094 C 296.332031 256.3125 295.945312 255.59375 295.632812 254.835938 C 295.316406 254.074219 295.078125 253.292969 294.917969 252.488281 C 294.757812 251.683594 294.679688 250.867188 294.679688 250.046875 C 294.679688 249.226562 294.757812 248.414062 294.917969 247.609375 C 295.078125 246.800781 295.316406 246.019531 295.632812 245.261719 C 295.945312 244.503906 296.332031 243.78125 296.789062 243.097656 C 297.246094 242.414062 297.765625 241.785156 298.34375 241.203125 C 298.925781 240.621094 299.558594 240.105469 300.242188 239.648438 C 300.925781 239.191406 301.648438 238.804688 302.40625 238.492188 C 303.164062 238.175781 303.949219 237.941406 304.753906 237.78125 C 305.5625 237.621094 306.375 237.539062 307.195312 237.539062 L 327.851562 237.539062 L 337.738281 178.5 L 294.929688 124.964844 L 252.746094 124.964844 L 228.835938 237.539062 L 257.125 237.539062 C 257.949219 237.539062 258.761719 237.621094 259.566406 237.78125 C 260.375 237.941406 261.15625 238.175781 261.914062 238.492188 C 262.675781 238.804688 263.394531 239.191406 264.078125 239.648438 C 264.761719 240.105469 265.394531 240.621094 265.976562 241.203125 C 266.558594 241.785156 267.078125 242.414062 267.535156 243.097656 C 267.988281 243.78125 268.375 244.503906 268.691406 245.261719 C 269.003906 246.019531 269.242188 246.800781 269.402344 247.609375 C 269.5625 248.414062 269.644531 249.226562 269.644531 250.046875 C 269.644531 250.867188 269.5625 251.683594 269.402344 252.488281 C 269.242188 253.292969 269.003906 254.074219 268.691406 254.835938 C 268.375 255.59375 267.988281 256.3125 267.535156 256.996094 C 267.078125 257.679688 266.558594 258.3125 265.976562 258.890625 C 265.394531 259.472656 264.761719 259.992188 264.078125 260.449219 C 263.394531 260.902344 262.675781 261.289062 261.914062 261.605469 C 261.15625 261.917969 260.375 262.15625 259.566406 262.316406 C 258.761719 262.476562 257.949219 262.554688 257.125 262.554688 L 213.3125 262.554688 C 212.84375 262.566406 212.371094 262.550781 211.902344 262.507812 C 211.433594 262.464844 210.96875 262.398438 210.507812 262.300781 C 210.042969 262.207031 209.589844 262.085938 209.140625 261.9375 C 208.695312 261.792969 208.257812 261.621094 207.828125 261.425781 C 207.398438 261.230469 206.984375 261.011719 206.578125 260.769531 C 206.175781 260.527344 205.785156 260.261719 205.414062 259.972656 C 205.039062 259.6875 204.683594 259.378906 204.34375 259.054688 C 204.003906 258.726562 203.683594 258.382812 203.382812 258.019531 C 203.085938 257.65625 202.804688 257.277344 202.546875 256.882812 C 202.289062 256.488281 202.054688 256.082031 201.84375 255.660156 C 201.632812 255.238281 201.445312 254.808594 201.285156 254.367188 C 201.121094 253.925781 200.984375 253.472656 200.871094 253.015625 C 200.761719 252.558594 200.675781 252.097656 200.617188 251.628906 C 200.554688 251.164062 200.523438 250.695312 200.515625 250.222656 C 200.511719 249.753906 200.53125 249.28125 200.578125 248.8125 C 200.625 248.347656 200.695312 247.882812 200.796875 247.421875 L 230.085938 110.582031 C 230.238281 109.875 230.449219 109.1875 230.71875 108.519531 C 230.992188 107.851562 231.316406 107.210938 231.699219 106.597656 C 232.082031 105.984375 232.511719 105.40625 232.992188 104.871094 C 233.476562 104.332031 234 103.839844 234.566406 103.390625 C 235.132812 102.945312 235.734375 102.546875 236.371094 102.203125 C 237.003906 101.859375 237.664062 101.574219 238.351562 101.34375 C 239.035156 101.117188 239.734375 100.945312 240.449219 100.839844 C 241.164062 100.730469 241.882812 100.683594 242.605469 100.699219 L 300.9375 99.949219 C 301.886719 99.945312 302.828125 100.046875 303.753906 100.253906 C 304.683594 100.464844 305.574219 100.773438 306.429688 101.1875 C 307.289062 101.597656 308.085938 102.101562 308.828125 102.695312 C 309.570312 103.289062 310.238281 103.957031 310.828125 104.703125 L 360.898438 167.242188 C 362.003906 168.613281 362.785156 170.148438 363.242188 171.84375 C 363.699219 173.542969 363.792969 175.261719 363.527344 177 L 351.007812 252.050781 C 350.890625 252.78125 350.707031 253.5 350.460938 254.203125 C 350.210938 254.902344 349.90625 255.578125 349.539062 256.222656 C 349.171875 256.871094 348.75 257.480469 348.273438 258.050781 C 347.796875 258.625 347.273438 259.148438 346.703125 259.625 C 346.132812 260.105469 345.527344 260.527344 344.878906 260.898438 C 344.234375 261.269531 343.5625 261.578125 342.859375 261.828125 C 342.160156 262.078125 341.441406 262.265625 340.707031 262.386719 C 339.972656 262.507812 339.234375 262.566406 338.492188 262.554688 Z M 338.492188 262.554688 " fill-opacity="1" fill-rule="nonzero"/></g><path fill="#11406d" d="M 163.242188 124.964844 L 25.546875 124.964844 C 24.722656 124.964844 23.910156 124.886719 23.105469 124.726562 C 22.296875 124.566406 21.515625 124.328125 20.753906 124.015625 C 19.996094 123.699219 19.273438 123.316406 18.589844 122.859375 C 17.910156 122.402344 17.277344 121.882812 16.695312 121.304688 C 16.113281 120.722656 15.59375 120.089844 15.136719 119.40625 C 14.679688 118.726562 14.296875 118.003906 13.980469 117.246094 C 13.667969 116.484375 13.429688 115.703125 13.269531 114.898438 C 13.109375 114.09375 13.027344 113.28125 13.027344 112.457031 C 13.027344 111.636719 13.109375 110.824219 13.269531 110.019531 C 13.429688 109.210938 13.667969 108.429688 13.980469 107.671875 C 14.296875 106.914062 14.679688 106.191406 15.136719 105.507812 C 15.59375 104.828125 16.113281 104.195312 16.695312 103.613281 C 17.277344 103.03125 17.910156 102.515625 18.589844 102.058594 C 19.273438 101.601562 19.996094 101.214844 20.753906 100.902344 C 21.515625 100.589844 22.296875 100.351562 23.105469 100.191406 C 23.910156 100.03125 24.722656 99.949219 25.546875 99.949219 L 163.242188 99.949219 C 164.0625 99.949219 164.878906 100.03125 165.683594 100.191406 C 166.488281 100.351562 167.273438 100.589844 168.03125 100.902344 C 168.792969 101.214844 169.511719 101.601562 170.195312 102.058594 C 170.878906 102.515625 171.511719 103.03125 172.09375 103.613281 C 172.675781 104.195312 173.195312 104.828125 173.648438 105.507812 C 174.105469 106.191406 174.492188 106.914062 174.808594 107.671875 C 175.121094 108.429688 175.359375 109.210938 175.519531 110.019531 C 175.679688 110.824219 175.757812 111.636719 175.757812 112.457031 C 175.757812 113.28125 175.679688 114.09375 175.519531 114.898438 C 175.359375 115.703125 175.121094 116.484375 174.808594 117.246094 C 174.492188 118.003906 174.105469 118.726562 173.648438 119.40625 C 173.195312 120.089844 172.675781 120.722656 172.09375 121.304688 C 171.511719 121.882812 170.878906 122.402344 170.195312 122.859375 C 169.511719 123.316406 168.792969 123.699219 168.03125 124.015625 C 167.273438 124.328125 166.488281 124.566406 165.683594 124.726562 C 164.878906 124.886719 164.0625 124.964844 163.242188 124.964844 Z M 163.242188 124.964844 " fill-opacity="1" fill-rule="nonzero"/><path fill="#11406d" d="M 150.722656 162.492188 L 25.546875 162.492188 C 24.722656 162.492188 23.910156 162.410156 23.105469 162.25 C 22.296875 162.089844 21.515625 161.851562 20.753906 161.539062 C 19.996094 161.222656 19.273438 160.839844 18.589844 160.382812 C 17.910156 159.925781 17.277344 159.40625 16.695312 158.828125 C 16.113281 158.246094 15.59375 157.613281 15.136719 156.933594 C 14.679688 156.25 14.296875 155.527344 13.980469 154.769531 C 13.667969 154.011719 13.429688 153.226562 13.269531 152.421875 C 13.109375 151.617188 13.027344 150.804688 13.027344 149.984375 C 13.027344 149.160156 13.109375 148.347656 13.269531 147.542969 C 13.429688 146.738281 13.667969 145.953125 13.980469 145.195312 C 14.296875 144.4375 14.679688 143.714844 15.136719 143.035156 C 15.59375 142.351562 16.113281 141.71875 16.695312 141.136719 C 17.277344 140.558594 17.910156 140.039062 18.589844 139.582031 C 19.273438 139.125 19.996094 138.742188 20.753906 138.425781 C 21.515625 138.113281 22.296875 137.875 23.105469 137.714844 C 23.910156 137.554688 24.722656 137.476562 25.546875 137.476562 L 150.722656 137.476562 C 151.546875 137.476562 152.359375 137.554688 153.167969 137.714844 C 153.972656 137.875 154.753906 138.113281 155.515625 138.425781 C 156.273438 138.742188 156.996094 139.125 157.679688 139.582031 C 158.363281 140.039062 158.996094 140.558594 159.574219 141.136719 C 160.15625 141.71875 160.675781 142.351562 161.132812 143.035156 C 161.589844 143.714844 161.972656 144.4375 162.289062 145.195312 C 162.605469 145.953125 162.839844 146.738281 163 147.542969 C 163.160156 148.347656 163.242188 149.160156 163.242188 149.984375 C 163.242188 150.804688 163.160156 151.617188 163 152.421875 C 162.839844 153.226562 162.605469 154.011719 162.289062 154.769531 C 161.972656 155.527344 161.589844 156.25 161.132812 156.933594 C 160.675781 157.613281 160.15625 158.246094 159.574219 158.828125 C 158.996094 159.40625 158.363281 159.925781 157.679688 160.382812 C 156.996094 160.839844 156.273438 161.222656 155.515625 161.539062 C 154.753906 161.851562 153.972656 162.089844 153.167969 162.25 C 152.359375 162.410156 151.546875 162.492188 150.722656 162.492188 Z M 150.722656 162.492188 " fill-opacity="1" fill-rule="nonzero"/><path fill="#11406d" d="M 138.207031 200.015625 L 25.546875 200.015625 C 24.722656 200.015625 23.910156 199.933594 23.105469 199.773438 C 22.296875 199.613281 21.515625 199.378906 20.753906 199.0625 C 19.996094 198.75 19.273438 198.363281 18.589844 197.90625 C 17.910156 197.449219 17.277344 196.933594 16.695312 196.351562 C 16.113281 195.769531 15.59375 195.140625 15.136719 194.457031 C 14.679688 193.773438 14.296875 193.050781 13.980469 192.292969 C 13.667969 191.535156 13.429688 190.753906 13.269531 189.949219 C 13.109375 189.140625 13.027344 188.328125 13.027344 187.507812 C 13.027344 186.6875 13.109375 185.871094 13.269531 185.066406 C 13.429688 184.261719 13.667969 183.480469 13.980469 182.71875 C 14.296875 181.960938 14.679688 181.242188 15.136719 180.558594 C 15.59375 179.875 16.113281 179.242188 16.695312 178.664062 C 17.277344 178.082031 17.910156 177.5625 18.589844 177.105469 C 19.273438 176.652344 19.996094 176.265625 20.753906 175.949219 C 21.515625 175.636719 22.296875 175.398438 23.105469 175.238281 C 23.910156 175.078125 24.722656 175 25.546875 175 L 138.207031 175 C 139.027344 175 139.84375 175.078125 140.648438 175.238281 C 141.453125 175.398438 142.238281 175.636719 142.996094 175.949219 C 143.757812 176.265625 144.476562 176.652344 145.160156 177.105469 C 145.84375 177.5625 146.476562 178.082031 147.058594 178.664062 C 147.640625 179.242188 148.15625 179.875 148.613281 180.558594 C 149.070312 181.242188 149.457031 181.960938 149.769531 182.71875 C 150.085938 183.480469 150.324219 184.261719 150.484375 185.066406 C 150.644531 185.871094 150.722656 186.6875 150.722656 187.507812 C 150.722656 188.328125 150.644531 189.140625 150.484375 189.949219 C 150.324219 190.753906 150.085938 191.535156 149.769531 192.292969 C 149.457031 193.050781 149.070312 193.773438 148.613281 194.457031 C 148.15625 195.140625 147.640625 195.769531 147.058594 196.351562 C 146.476562 196.933594 145.84375 197.449219 145.160156 197.90625 C 144.476562 198.363281 143.757812 198.75 142.996094 199.0625 C 142.238281 199.378906 141.453125 199.613281 140.648438 199.773438 C 139.84375 199.933594 139.027344 200.015625 138.207031 200.015625 Z M 138.207031 200.015625 " fill-opacity="1" fill-rule="nonzero"/><path fill="#11406d" d="M 275.902344 162.492188 L 238.347656 162.492188 C 237.527344 162.492188 236.710938 162.410156 235.90625 162.25 C 235.101562 162.089844 234.316406 161.851562 233.558594 161.539062 C 232.800781 161.222656 232.078125 160.839844 231.394531 160.382812 C 230.710938 159.925781 230.078125 159.40625 229.496094 158.828125 C 228.917969 158.246094 228.398438 157.613281 227.941406 156.933594 C 227.484375 156.25 227.097656 155.527344 226.785156 154.769531 C 226.46875 154.011719 226.230469 153.226562 226.070312 152.421875 C 225.910156 151.617188 225.832031 150.804688 225.832031 149.984375 C 225.832031 149.160156 225.910156 148.347656 226.070312 147.542969 C 226.230469 146.738281 226.46875 145.953125 226.785156 145.195312 C 227.097656 144.4375 227.484375 143.714844 227.941406 143.035156 C 228.398438 142.351562 228.917969 141.71875 229.496094 141.136719 C 230.078125 140.558594 230.710938 140.039062 231.394531 139.582031 C 232.078125 139.125 232.800781 138.742188 233.558594 138.425781 C 234.316406 138.113281 235.101562 137.875 235.90625 137.714844 C 236.710938 137.554688 237.527344 137.476562 238.347656 137.476562 L 275.902344 137.476562 C 276.722656 137.476562 277.539062 137.554688 278.34375 137.714844 C 279.148438 137.875 279.933594 138.113281 280.691406 138.425781 C 281.453125 138.742188 282.171875 139.125 282.855469 139.582031 C 283.539062 140.039062 284.171875 140.558594 284.753906 141.136719 C 285.335938 141.71875 285.855469 142.351562 286.308594 143.035156 C 286.765625 143.714844 287.152344 144.4375 287.46875 145.195312 C 287.78125 145.953125 288.019531 146.738281 288.179688 147.542969 C 288.339844 148.347656 288.417969 149.160156 288.417969 149.984375 C 288.417969 150.804688 288.339844 151.617188 288.179688 152.421875 C 288.019531 153.226562 287.78125 154.011719 287.46875 154.769531 C 287.152344 155.527344 286.765625 156.25 286.308594 156.933594 C 285.855469 157.613281 285.335938 158.246094 284.753906 158.828125 C 284.171875 159.40625 283.539062 159.925781 282.855469 160.382812 C 282.171875 160.839844 281.453125 161.222656 280.691406 161.539062 C 279.933594 161.851562 279.148438 162.089844 278.34375 162.25 C 277.539062 162.410156 276.722656 162.492188 275.902344 162.492188 Z M 275.902344 162.492188 " fill-opacity="1" fill-rule="nonzero"/></svg>