<svg xmlns="http://www.w3.org/2000/svg" xmlns:xlink="http://www.w3.org/1999/xlink" width="500" zoomAndPan="magnify" viewBox="0 0 375 374.999991" height="500" preserveAspectRatio="xMidYMid meet" version="1.0"><defs><clipPath id="ad54d23c39"><path d="M 19.824219 47.300781 L 355.878906 47.300781 L 355.878906 319.25 L 19.824219 319.25 Z M 19.824219 47.300781 " clip-rule="nonzero"/></clipPath><clipPath id="6051800b16"><path d="M 134 123.371094 L 241 123.371094 L 241 171 L 134 171 Z M 134 123.371094 " clip-rule="nonzero"/></clipPath><clipPath id="595890118c"><path d="M 110 151 L 265 151 L 265 327.332031 L 110 327.332031 Z M 110 151 " clip-rule="nonzero"/></clipPath></defs><g clip-path="url(#ad54d23c39)"><path fill="#11406d" d="M 141.683594 47.308594 L 234.019531 47.308594 L 355.878906 319.242188 L 19.824219 319.242188 L 141.683594 47.308594 " fill-opacity="1" fill-rule="nonzero"/></g><g clip-path="url(#6051800b16)"><path fill="#ffffff" d="M 134.441406 146.980469 C 134.441406 134.03125 144.945312 123.53125 157.898438 123.53125 L 216.839844 123.53125 C 229.792969 123.53125 240.296875 134.03125 240.296875 146.980469 C 240.296875 159.933594 229.792969 170.433594 216.839844 170.433594 L 157.898438 170.433594 C 144.945312 170.433594 134.441406 159.933594 134.441406 146.980469 Z M 157.898438 142.773438 C 155.574219 142.773438 153.6875 144.65625 153.6875 146.980469 C 153.6875 149.304688 155.574219 151.191406 157.898438 151.191406 L 216.839844 151.191406 C 219.164062 151.191406 221.050781 149.304688 221.050781 146.980469 C 221.050781 144.65625 219.164062 142.773438 216.839844 142.773438 Z M 157.898438 142.773438 " fill-opacity="1" fill-rule="evenodd"/></g><g clip-path="url(#595890118c)"><path fill="#ffffff" d="M 148.875 160.8125 C 148.875 155.5 153.183594 151.191406 158.5 151.191406 L 216.238281 151.191406 C 221.554688 151.191406 225.859375 155.5 225.859375 160.8125 L 225.859375 188.773438 C 248.730469 201.519531 264.351562 225.398438 264.351562 253.011719 C 264.351562 294.351562 229.496094 327.171875 187.367188 327.171875 C 145.242188 327.171875 110.386719 294.351562 110.386719 253.011719 C 110.386719 225.398438 126.007812 201.519531 148.875 188.773438 Z M 168.121094 170.433594 L 168.121094 194.683594 C 168.121094 198.453125 165.917969 201.875 162.488281 203.4375 C 142.871094 212.367188 129.628906 231.347656 129.628906 253.011719 C 129.628906 282.960938 155.089844 307.929688 187.367188 307.929688 C 219.644531 307.929688 245.105469 282.960938 245.105469 253.011719 C 245.105469 231.347656 231.867188 212.367188 212.25 203.4375 C 208.820312 201.875 206.613281 198.453125 206.613281 194.683594 L 206.613281 170.433594 Z M 168.121094 170.433594 " fill-opacity="1" fill-rule="evenodd"/></g></svg>