<svg xmlns="http://www.w3.org/2000/svg" xmlns:xlink="http://www.w3.org/1999/xlink" width="500" zoomAndPan="magnify" viewBox="0 0 375 374.999991" height="500" preserveAspectRatio="xMidYMid meet" version="1.0"><defs><clipPath id="7a5a0747fa"><path d="M 60.4375 44 L 314.6875 44 L 314.6875 362.34375 L 60.4375 362.34375 Z M 60.4375 44 " clip-rule="nonzero"/></clipPath><clipPath id="16a1043106"><path d="M 155 12.84375 L 220 12.84375 L 220 77 L 155 77 Z M 155 12.84375 " clip-rule="nonzero"/></clipPath></defs><g clip-path="url(#7a5a0747fa)"><path fill="#11406d" d="M 282.878906 44.617188 L 203.449219 44.617188 C 203.449219 53.390625 196.339844 60.5 187.5625 60.5 C 178.785156 60.5 171.675781 53.390625 171.675781 44.617188 L 92.246094 44.617188 C 74.683594 44.617188 60.472656 58.824219 60.472656 76.386719 L 60.472656 330.570312 C 60.472656 348.132812 74.683594 362.34375 92.246094 362.34375 L 282.878906 362.34375 C 300.4375 362.34375 314.648438 348.132812 314.648438 330.570312 L 314.648438 76.386719 C 314.648438 58.824219 300.4375 44.617188 282.878906 44.617188 " fill-opacity="1" fill-rule="nonzero"/></g><path fill="#d7f5f5" d="M 282.878906 338.511719 L 92.246094 338.511719 C 87.871094 338.511719 84.304688 334.945312 84.304688 330.570312 L 84.304688 76.386719 C 84.304688 72.011719 87.871094 68.445312 92.246094 68.445312 L 282.878906 68.445312 C 287.253906 68.445312 290.820312 72.011719 290.820312 76.386719 L 290.820312 330.570312 C 290.820312 334.945312 287.253906 338.511719 282.878906 338.511719 " fill-opacity="1" fill-rule="nonzero"/><path fill="#11406d" d="M 203.449219 44.617188 C 203.449219 53.390625 196.339844 60.5 187.5625 60.5 C 178.785156 60.5 171.675781 53.390625 171.675781 44.617188 L 116.074219 44.617188 L 116.074219 76.386719 C 116.074219 85.164062 123.183594 92.273438 131.960938 92.273438 L 243.164062 92.273438 C 251.9375 92.273438 259.046875 85.164062 259.046875 76.386719 L 259.046875 44.617188 Z M 203.449219 44.617188 " fill-opacity="1" fill-rule="nonzero"/><g clip-path="url(#16a1043106)"><path fill="#11406d" d="M 187.5625 12.84375 C 170.03125 12.84375 155.789062 27.085938 155.789062 44.617188 C 155.789062 62.144531 170.03125 76.386719 187.5625 76.386719 C 205.089844 76.386719 219.332031 62.144531 219.332031 44.617188 C 219.332031 27.085938 205.089844 12.84375 187.5625 12.84375 M 187.5625 60.5 C 178.785156 60.5 171.675781 53.390625 171.675781 44.617188 C 171.675781 35.839844 178.785156 28.730469 187.5625 28.730469 C 196.339844 28.730469 203.449219 35.839844 203.449219 44.617188 C 203.449219 53.390625 196.339844 60.5 187.5625 60.5 " fill-opacity="1" fill-rule="nonzero"/></g><path fill="#12c2c2" d="M 108.132812 155.820312 L 179.617188 155.820312 L 179.617188 171.707031 L 108.132812 171.707031 Z M 108.132812 251.136719 L 179.617188 251.136719 L 179.617188 267.023438 L 108.132812 267.023438 Z M 108.132812 251.136719 " fill-opacity="1" fill-rule="nonzero"/><path fill="#12c2c2" d="M 242.449219 176.394531 L 231.246094 187.59375 L 203.449219 159.792969 L 214.648438 148.589844 L 231.246094 165.191406 Z M 242.449219 176.394531 " fill-opacity="1" fill-rule="nonzero"/><path fill="#12c2c2" d="M 266.769531 152.070312 L 231.246094 187.59375 L 220.046875 176.394531 L 231.246094 165.191406 L 255.570312 140.871094 Z M 242.449219 271.710938 L 231.246094 282.910156 L 203.449219 255.109375 L 214.648438 243.910156 L 231.246094 260.511719 Z M 242.449219 271.710938 " fill-opacity="1" fill-rule="nonzero"/><path fill="#12c2c2" d="M 266.769531 247.390625 L 231.246094 282.910156 L 220.046875 271.710938 L 255.570312 236.1875 Z M 266.769531 247.390625 " fill-opacity="1" fill-rule="nonzero"/></svg>