<svg xmlns="http://www.w3.org/2000/svg" xmlns:xlink="http://www.w3.org/1999/xlink" width="500" zoomAndPan="magnify" viewBox="0 0 375 374.999991" height="500" preserveAspectRatio="xMidYMid meet" version="1.0"><defs><clipPath id="82f9539187"><path d="M 17.679688 17.679688 L 357.429688 17.679688 L 357.429688 357.429688 L 17.679688 357.429688 Z M 17.679688 17.679688 " clip-rule="nonzero"/></clipPath></defs><g clip-path="url(#82f9539187)"><path fill="#12c2c2" d="M 357.519531 187.625 C 357.519531 281.457031 281.453125 357.523438 187.621094 357.523438 C 93.792969 357.523438 17.71875 281.457031 17.71875 187.625 C 17.71875 93.796875 93.792969 17.726562 187.621094 17.726562 C 281.453125 17.726562 357.519531 93.796875 357.519531 187.625 " fill-opacity="1" fill-rule="nonzero"/></g><path stroke-linecap="round" transform="matrix(0.132559, 0, 0, -0.132559, -94.199022, 469.444001)" fill="none" stroke-linejoin="round" d="M 1710.698712 1427.592155 L 1710.050418 2508.35698 L 2541.251569 2508.35698 L 2541.899863 1427.592155 L 2005.613489 1427.592155 L 2005.613489 1641.087115 " stroke="#ffffff" stroke-width="100" stroke-opacity="1" stroke-miterlimit="10"/><path stroke-linecap="round" transform="matrix(0.132559, 0, 0, -0.132559, -94.199022, 469.444001)" fill="none" stroke-linejoin="round" d="M 2542.253478 1427.592155 L 2541.899863 1968.829137 L 2958.163466 1968.829137 L 2958.487613 1427.592155 L 2724.453525 1427.592155 " stroke="#ffffff" stroke-width="100" stroke-opacity="1" stroke-miterlimit="10"/><path stroke-linecap="round" transform="matrix(0.132559, 0, 0, -0.132559, -94.199022, 469.444001)" fill="none" stroke-linejoin="round" d="M 2412.270556 2508.35698 L 2412.064281 2972.358587 L 1839.414514 2972.358587 L 1839.620789 2508.35698 Z M 2412.270556 2508.35698 " stroke="#ffffff" stroke-width="100" stroke-opacity="1" stroke-miterlimit="10"/><path stroke-linecap="round" transform="matrix(0.132559, 0, 0, -0.132559, -94.199022, 469.444001)" fill="none" stroke-linejoin="round" d="M 2004.935727 1641.087115 L 2246.985086 1641.087115 L 2246.985086 1427.592155 " stroke="#ffffff" stroke-width="100" stroke-opacity="1" stroke-miterlimit="10"/><path stroke-linecap="round" transform="matrix(0.132559, 0, 0, -0.132559, -94.199022, 469.444001)" fill="none" stroke-linejoin="round" d="M 2004.876792 1900.876152 L 1883.911048 1900.876152 " stroke="#ffffff" stroke-width="100" stroke-opacity="1" stroke-miterlimit="10"/><path stroke-linecap="round" transform="matrix(0.132559, 0, 0, -0.132559, -94.199022, 469.444001)" fill="none" stroke-linejoin="round" d="M 2004.876792 2078.007719 L 1883.911048 2078.007719 " stroke="#ffffff" stroke-width="100" stroke-opacity="1" stroke-miterlimit="10"/><path stroke-linecap="round" transform="matrix(0.132559, 0, 0, -0.132559, -94.199022, 469.444001)" fill="none" stroke-linejoin="round" d="M 2004.876792 2255.139286 L 1883.911048 2255.139286 " stroke="#ffffff" stroke-width="100" stroke-opacity="1" stroke-miterlimit="10"/><path stroke-linecap="round" transform="matrix(0.132559, 0, 0, -0.132559, -94.199022, 469.444001)" fill="none" stroke-linejoin="round" d="M 2358.285357 1900.876152 L 2237.290146 1900.876152 " stroke="#ffffff" stroke-width="100" stroke-opacity="1" stroke-miterlimit="10"/><path stroke-linecap="round" transform="matrix(0.132559, 0, 0, -0.132559, -94.199022, 469.444001)" fill="none" stroke-linejoin="round" d="M 2358.285357 2078.007719 L 2237.290146 2078.007719 " stroke="#ffffff" stroke-width="100" stroke-opacity="1" stroke-miterlimit="10"/><path stroke-linecap="round" transform="matrix(0.132559, 0, 0, -0.132559, -94.199022, 469.444001)" fill="none" stroke-linejoin="round" d="M 2358.285357 2255.139286 L 2237.290146 2255.139286 " stroke="#ffffff" stroke-width="100" stroke-opacity="1" stroke-miterlimit="10"/><path stroke-linecap="round" transform="matrix(0.132559, 0, 0, -0.132559, -94.199022, 469.444001)" fill="none" stroke-linejoin="round" d="M 2209.67872 2740.357783 L 2042.271561 2740.357783 " stroke="#ffffff" stroke-width="100" stroke-opacity="1" stroke-miterlimit="10"/><path stroke-linecap="round" transform="matrix(0.132559, 0, 0, -0.132559, -94.199022, 469.444001)" fill="none" stroke-linejoin="round" d="M 2125.989875 2656.63947 L 2125.989875 2824.017161 " stroke="#ffffff" stroke-width="100" stroke-opacity="1" stroke-miterlimit="10"/><path stroke-linecap="round" transform="matrix(0.132559, 0, 0, -0.132559, -94.199022, 469.444001)" fill="none" stroke-linejoin="round" d="M 2805.460791 1613.711433 L 2684.495048 1613.711433 " stroke="#ffffff" stroke-width="100" stroke-opacity="1" stroke-miterlimit="10"/><path stroke-linecap="round" transform="matrix(0.132559, 0, 0, -0.132559, -94.199022, 469.444001)" fill="none" stroke-linejoin="round" d="M 2805.460791 1782.945602 L 2684.495048 1782.945602 " stroke="#ffffff" stroke-width="100" stroke-opacity="1" stroke-miterlimit="10"/><path stroke-linecap="round" transform="matrix(0.132559, 0, 0, -0.132559, -94.199022, 469.444001)" fill="none" stroke-linejoin="round" d="M 1709.726271 1427.592155 L 1710.050418 1968.829137 L 1293.786815 1968.829137 L 1293.462668 1427.592155 L 1527.526225 1427.592155 " stroke="#ffffff" stroke-width="100" stroke-opacity="1" stroke-miterlimit="10"/><path stroke-linecap="round" transform="matrix(0.132559, 0, 0, -0.132559, -94.199022, 469.444001)" fill="none" stroke-linejoin="round" d="M 1446.48949 1613.711433 L 1567.455234 1613.711433 " stroke="#ffffff" stroke-width="100" stroke-opacity="1" stroke-miterlimit="10"/><path stroke-linecap="round" transform="matrix(0.132559, 0, 0, -0.132559, -94.199022, 469.444001)" fill="none" stroke-linejoin="round" d="M 1446.48949 1782.945602 L 1567.455234 1782.945602 " stroke="#ffffff" stroke-width="100" stroke-opacity="1" stroke-miterlimit="10"/></svg>