<svg xmlns="http://www.w3.org/2000/svg" xmlns:xlink="http://www.w3.org/1999/xlink" width="500" zoomAndPan="magnify" viewBox="0 0 375 374.999991" height="500" preserveAspectRatio="xMidYMid meet" version="1.0"><defs><clipPath id="d48fe98ea7"><path d="M 13.375 13.375 L 361.375 13.375 L 361.375 361.375 L 13.375 361.375 Z M 13.375 13.375 " clip-rule="nonzero"/></clipPath><clipPath id="c19982c35b"><path d="M 37.5 43 L 337.5 43 L 337.5 340.5 L 37.5 340.5 Z M 37.5 43 " clip-rule="nonzero"/></clipPath></defs><g clip-path="url(#d48fe98ea7)"><path fill="#e4feff" d="M 187.375 13.375 C 91.277344 13.375 13.375 91.277344 13.375 187.375 C 13.375 283.472656 91.277344 361.375 187.375 361.375 C 283.472656 361.375 361.375 283.472656 361.375 187.375 C 361.375 91.277344 283.472656 13.375 187.375 13.375 " fill-opacity="1" fill-rule="nonzero"/></g><g clip-path="url(#c19982c35b)"><path fill="#12c2c2" d="M 313.152344 101.488281 C 278.882812 91.40625 243.214844 57.164062 234.550781 65.277344 C 222.984375 75.089844 208.378906 80.632812 193.621094 83.546875 C 193.566406 66.789062 193.257812 72.089844 197.207031 67.484375 C 202.96875 62.628906 202.824219 52.972656 197.566406 47.804688 C 187.753906 37.550781 171.152344 47.242188 173.652344 59.90625 C 174.121094 64.523438 177.816406 67.582031 180.996094 70.507812 C 181.738281 74.800781 181.308594 79.191406 181.429688 83.535156 C 168.851562 81.109375 156.515625 76.613281 145.847656 69.441406 C 142.488281 67.328125 139.582031 62.855469 135.046875 64.234375 C 119.003906 68.019531 93.277344 91.394531 63.777344 100.914062 C 55.296875 103.886719 46.113281 103.25 37.5 105.636719 L 37.5 106.65625 C 47.015625 110.027344 57.585938 109.8125 67.414062 107.941406 C 70.480469 110.5625 67.675781 114.238281 89.078125 107.378906 C 93.324219 111.648438 99.277344 108.757812 104.171875 107.484375 C 106.800781 106.511719 109.453125 107.878906 112.042969 108.277344 C 115.621094 109.273438 119.171875 107.738281 122.714844 107.425781 C 125.894531 107.605469 129.023438 108.503906 132.21875 108.191406 C 135.601562 107.929688 138.671875 106.371094 141.925781 105.53125 C 144.984375 105.839844 148.03125 107.066406 151.152344 106.464844 C 154.40625 105.9375 157.199219 104.113281 160.214844 102.902344 C 166.652344 102.582031 165.652344 107.101562 181.609375 96.558594 C 181.957031 122.96875 182.507812 149.390625 182.6875 175.816406 C 159.292969 166.375 128.707031 163.863281 124.1875 154.574219 C 122.386719 147.664062 128.472656 141.378906 134.652344 139.425781 C 141.5625 137.996094 148.75 139.066406 155.722656 137.816406 C 163.070312 136.503906 166.082031 134.101562 172.820312 128.316406 C 173.367188 127.851562 173.265625 126.980469 172.628906 126.648438 C 162.824219 121.550781 163.828125 126.511719 147.824219 119.46875 C 144.492188 118 140.722656 122.785156 135.070312 125.320312 C 127.511719 128.847656 119.929688 133.355469 115.320312 140.539062 C 110.375 148.046875 111.527344 158.566406 117.121094 165.417969 C 127.339844 177.960938 150.285156 180.496094 172.007812 186.285156 C 168.746094 189.035156 165.421875 191.757812 162.734375 195.089844 C 155.617188 203.726562 152.316406 215.539062 154.261719 226.585938 C 156.636719 237.226562 166.464844 243.535156 175.273438 248.632812 C 168.757812 253.035156 162.253906 258.09375 158.664062 265.292969 C 148.390625 286.855469 164.539062 295.617188 182.546875 308.792969 C 176.660156 316.183594 168.238281 328.664062 173.054688 336.847656 C 175.285156 328.726562 173.296875 325.675781 184.644531 314.910156 C 184.96875 323.414062 184.898438 331.929688 185.019531 340.445312 C 186.675781 340.445312 188.332031 340.457031 189.988281 340.457031 C 190.046875 331.929688 190.117188 323.390625 190.296875 314.863281 C 202.148438 326.300781 199.453125 328.472656 201.988281 336.777344 C 202.875 334.628906 203.824219 332.363281 203.257812 330 C 202.335938 321.84375 197.476562 314.925781 192.339844 308.792969 C 209.0625 296.980469 223.609375 288.597656 218.28125 270.425781 C 215.761719 260.734375 207.746094 253.980469 199.789062 248.582031 C 217.832031 238.386719 225.246094 228.769531 219.484375 208.414062 C 216.878906 199.300781 210.289062 192.042969 203.03125 186.238281 C 218.835938 181.957031 235.632812 180.035156 250.144531 171.988281 C 262.921875 165.125 274.488281 141.664062 240.746094 125.726562 C 236.871094 124.089844 233.589844 120.273438 229.425781 119.453125 C 225.777344 118.734375 223.128906 122.375 217.226562 123.101562 C 209.453125 124.058594 198.425781 125.09375 202.609375 128.730469 C 206.179688 131.832031 210.535156 135.722656 215.199219 136.976562 C 222.832031 139.027344 230.796875 138.199219 238.5625 139.039062 C 245.320312 140.203125 251.992188 146.273438 251.03125 153.589844 C 248.578125 163.5 217.503906 165.882812 192.339844 175.765625 C 192.445312 149.34375 193.128906 122.921875 193.335938 96.5 C 208.742188 106.671875 207.730469 102.882812 214.753906 102.855469 C 217.765625 104.101562 220.550781 106.035156 223.851562 106.453125 C 226.980469 106.980469 230.042969 105.878906 233.136719 105.578125 C 236.34375 106.382812 239.390625 107.894531 242.726562 108.179688 C 245.976562 108.578125 249.15625 107.582031 252.386719 107.402344 C 255.890625 107.796875 259.40625 109.234375 262.945312 108.265625 C 265.527344 107.867188 268.164062 106.539062 270.792969 107.472656 C 275.691406 108.683594 281.628906 111.683594 285.84375 107.363281 C 305.5625 114.167969 305.015625 110.675781 307.5625 107.976562 C 317.425781 109.992188 327.78125 109.609375 337.503906 106.992188 L 337.503906 105.84375 C 329.632812 103.105469 321.074219 104.019531 313.15625 101.488281 Z M 149.191406 126.550781 C 149.191406 130.785156 142.785156 130.789062 142.785156 126.550781 C 142.785156 122.320312 149.191406 122.316406 149.191406 126.550781 Z M 166.871094 224.964844 C 163.941406 212.359375 171.800781 199.429688 183.023438 193.839844 C 183.214844 209.121094 183.550781 224.402344 183.707031 239.683594 C 177.285156 235.988281 169.738281 232.269531 166.871094 224.964844 Z M 167.3125 284.375 C 164.132812 280.691406 165.152344 275.304688 167.132812 271.3125 C 170.613281 264.558594 177.441406 260.683594 183.65625 256.835938 C 184.460938 271.492188 184.113281 286.195312 184.558594 300.863281 C 178.425781 295.816406 172.378906 290.511719 167.3125 284.371094 Z M 226.964844 129.753906 C 222.730469 129.753906 222.726562 123.351562 226.964844 123.351562 C 231.199219 123.351562 231.203125 129.753906 226.964844 129.753906 Z M 208.640625 272.980469 C 212.035156 282.679688 208.050781 285.324219 190.4375 300.972656 C 190.75 286.257812 190.761719 271.539062 191.183594 256.824219 C 197.960938 260.925781 205.5 265.269531 208.640625 272.980469 Z M 208.367188 224.089844 C 206.015625 231.996094 197.832031 235.808594 191.265625 239.730469 C 191.554688 224.402344 191.6875 209.089844 192.011719 193.757812 C 202.882812 199.394531 210.660156 211.652344 208.367188 224.089844 Z M 208.367188 224.089844 " fill-opacity="1" fill-rule="nonzero"/></g></svg>