<svg xmlns="http://www.w3.org/2000/svg" xmlns:xlink="http://www.w3.org/1999/xlink" width="500" zoomAndPan="magnify" viewBox="0 0 375 374.999991" height="500" preserveAspectRatio="xMidYMid meet" version="1.0"><defs><clipPath id="122db806fb"><path d="M 13.375 13.375 L 361.375 13.375 L 361.375 361.375 L 13.375 361.375 Z M 13.375 13.375 " clip-rule="nonzero"/></clipPath><clipPath id="c0062025da"><path d="M 57.628906 140 L 148 140 L 148 221 L 57.628906 221 Z M 57.628906 140 " clip-rule="nonzero"/></clipPath><clipPath id="6e9d9ef913"><path d="M 110 50.585938 L 228 50.585938 L 228 221 L 110 221 Z M 110 50.585938 " clip-rule="nonzero"/></clipPath><clipPath id="24f09f4d77"><path d="M 227 154 L 317.128906 154 L 317.128906 235 L 227 235 Z M 227 154 " clip-rule="nonzero"/></clipPath><clipPath id="d710e308bc"><path d="M 147 154 L 265 154 L 265 324.335938 L 147 324.335938 Z M 147 154 " clip-rule="nonzero"/></clipPath></defs><g clip-path="url(#122db806fb)"><path fill="#12c2c2" d="M 187.375 13.375 C 91.277344 13.375 13.375 91.277344 13.375 187.375 C 13.375 283.472656 91.277344 361.375 187.375 361.375 C 283.472656 361.375 361.375 283.472656 361.375 187.375 C 361.375 91.277344 283.472656 13.375 187.375 13.375 " fill-opacity="1" fill-rule="nonzero"/></g><g clip-path="url(#c0062025da)"><path fill="#ffffff" d="M 97.269531 140.894531 L 147.738281 140.894531 C 147.738281 189.546875 126.640625 218.789062 110.230469 220.179688 C 109.191406 220.21875 108.152344 220.234375 107.109375 220.234375 L 97.269531 220.234375 C 86.320312 220.234375 76.410156 215.796875 69.238281 208.617188 C 62.0625 201.4375 57.625 191.519531 57.625 180.566406 C 57.625 158.65625 75.375 140.894531 97.269531 140.894531 " fill-opacity="1" fill-rule="nonzero"/></g><g clip-path="url(#6e9d9ef913)"><path fill="#f3f8ff" d="M 227.023438 90.394531 L 227.023438 113.140625 C 227.023438 130.914062 219.96875 147.957031 207.410156 160.523438 L 176.464844 191.492188 C 158.808594 209.15625 135.113281 219.394531 110.230469 220.179688 C 126.640625 218.789062 147.738281 189.546875 147.738281 140.894531 L 147.738281 90.394531 C 147.738281 68.484375 165.484375 50.726562 187.378906 50.726562 C 209.273438 50.726562 227.023438 68.484375 227.023438 90.394531 " fill-opacity="1" fill-rule="nonzero"/></g><g clip-path="url(#24f09f4d77)"><path fill="#ffffff" d="M 277.488281 234.054688 L 227.023438 234.054688 C 227.023438 185.40625 248.117188 156.160156 264.53125 154.769531 C 265.566406 154.734375 266.605469 154.714844 267.648438 154.714844 L 277.488281 154.714844 C 288.4375 154.714844 298.347656 159.15625 305.523438 166.335938 C 312.695312 173.515625 317.132812 183.429688 317.132812 194.382812 C 317.132812 216.292969 299.386719 234.054688 277.488281 234.054688 " fill-opacity="1" fill-rule="nonzero"/></g><g clip-path="url(#d710e308bc)"><path fill="#f3f8ff" d="M 147.738281 284.558594 L 147.738281 261.808594 C 147.738281 244.039062 154.789062 226.992188 167.347656 214.425781 L 198.296875 183.460938 C 215.949219 165.792969 239.644531 155.558594 264.53125 154.769531 C 248.117188 156.160156 227.023438 185.40625 227.023438 234.054688 L 227.023438 284.558594 C 227.023438 306.464844 209.273438 324.226562 187.378906 324.226562 C 165.484375 324.226562 147.738281 306.464844 147.738281 284.558594 " fill-opacity="1" fill-rule="nonzero"/></g></svg>