<svg xmlns="http://www.w3.org/2000/svg" xmlns:xlink="http://www.w3.org/1999/xlink" width="500" zoomAndPan="magnify" viewBox="0 0 375 374.999991" height="500" preserveAspectRatio="xMidYMid meet" version="1.0"><defs><clipPath id="b44dba98d4"><path d="M 13.375 13.375 L 361.375 13.375 L 361.375 361.375 L 13.375 361.375 Z M 13.375 13.375 " clip-rule="nonzero"/></clipPath><clipPath id="e67dce6fcf"><path d="M 77.1875 51.765625 L 297.6875 51.765625 L 297.6875 323 L 77.1875 323 Z M 77.1875 51.765625 " clip-rule="nonzero"/></clipPath><clipPath id="37db6ee892"><path d="M 77.1875 51.765625 L 297.6875 51.765625 L 297.6875 323.265625 L 77.1875 323.265625 Z M 77.1875 51.765625 " clip-rule="nonzero"/></clipPath></defs><g clip-path="url(#b44dba98d4)"><path fill="#12c2c2" d="M 187.375 13.375 C 91.277344 13.375 13.375 91.277344 13.375 187.375 C 13.375 283.472656 91.277344 361.375 187.375 361.375 C 283.472656 361.375 361.375 283.472656 361.375 187.375 C 361.375 91.277344 283.472656 13.375 187.375 13.375 " fill-opacity="1" fill-rule="nonzero"/></g><g clip-path="url(#e67dce6fcf)"><path fill="#ffffff" d="M 166.558594 255.222656 C 148.546875 245.8125 136.355469 237.257812 129.328125 229.136719 C 122.386719 220.925781 120.925781 213.691406 124.941406 206.777344 C 115.273438 201.609375 108.53125 195.324219 104.289062 187.804688 C 100.128906 180.167969 98.582031 171.703125 99.871094 161.742188 C 92.585938 154.25 87.855469 147.621094 85.675781 141.738281 C 83.492188 135.765625 83.753906 130.828125 86.679688 126.496094 C 80.738281 112.890625 77.8125 103.363281 77.554688 97.363281 C 77.238281 91.335938 78.902344 83.847656 85.328125 90.9375 C 91.78125 98.113281 102.96875 124.144531 116.132812 140.046875 C 129.242188 155.945312 144.816406 170.785156 163.519531 185.449219 C 162.429688 174.054688 163.003906 163.695312 165.554688 153.9375 C 168.109375 144.089844 172.210938 135.394531 178.40625 127.1875 C 177.800781 115.332031 179.722656 105.660156 184.167969 97.710938 C 188.617188 89.789062 195.382812 83.847656 204.820312 79.773438 C 205.109375 75.265625 206.457031 71.792969 208.867188 68.921875 C 211.273438 66.109375 214.542969 64.042969 219.019531 62.835938 C 223.808594 55.230469 227.539062 51.757812 230.207031 51.988281 C 232.871094 52.246094 235.367188 55.433594 234.9375 64.53125 C 234.335938 73.714844 228.339844 92.402344 227.136719 106.175781 C 225.929688 119.808594 230.550781 132.46875 227.824219 145.816406 C 224.925781 159.132812 211.386719 172.304688 210.558594 185.453125 C 209.726562 198.570312 217.441406 215.933594 223.089844 223.710938 C 228.742188 231.289062 237.03125 231.117188 244.085938 230.828125 C 251.171875 230.484375 258.457031 221.902344 264.710938 221.675781 C 270.789062 221.359375 274.691406 226.582031 280.285156 229.136719 C 285.761719 231.664062 291.441406 234.042969 297.550781 236.597656 C 286.96875 238.894531 278.621094 242.769531 272.167969 248.453125 C 265.683594 254.136719 268.4375 263.320312 258.972656 270.46875 C 249.335938 277.5 231.007812 288.40625 215.289062 290.445312 C 199.511719 292.339844 183.078125 289.554688 165.207031 281.976562 C 152.1875 296.988281 141.085938 307.609375 131.363281 314.496094 C 121.582031 321.183594 110.511719 323.222656 107.328125 322.617188 C 104.199219 321.988281 106.007812 318.253906 112.746094 311.109375 C 95.394531 315.359375 85.5 316.449219 82.285156 314.496094 C 79.21875 312.460938 83.0625 307.492188 94.132812 299.253906 C 84.324219 301.265625 80.453125 300.804688 82.285156 297.878906 C 84.179688 294.863281 91.148438 288.75 105.289062 281.632812 C 119.492188 274.398438 139.539062 265.816406 166.558594 255.222656 Z M 166.558594 255.222656 " fill-opacity="1" fill-rule="evenodd"/></g><g clip-path="url(#37db6ee892)"><path stroke-linecap="butt" transform="matrix(0.692675, 0, 0, 0.693132, 77.543356, 51.975045)" fill="none" stroke-linejoin="miter" d="M 128.509465 293.23059 C 102.506318 279.654314 84.905836 267.312245 74.760604 255.595733 C 64.739439 243.749601 62.630314 233.312381 68.427589 223.337284 C 54.470141 215.881322 44.736584 206.813564 38.612225 195.964942 C 32.606293 184.94725 30.373102 172.734801 32.234095 158.363898 C 21.716665 147.554725 14.887384 137.991031 11.740615 129.503745 C 8.588205 120.886839 8.966043 113.76338 13.189933 107.513446 C 4.612447 87.884485 0.388557 74.139139 0.0163588 65.482784 C -0.44043 56.786979 1.961942 45.983442 11.23871 56.212143 C 20.554954 66.564828 36.706117 104.120786 55.710803 127.063509 C 74.636538 150.000597 97.120717 171.410423 124.122033 192.566646 C 122.548648 176.127461 123.377636 161.181722 127.060146 147.103874 C 130.748296 132.896405 136.669637 120.351453 145.613682 108.510956 C 144.73958 91.406765 147.514151 77.4529 153.931757 65.984357 C 160.355003 54.555262 170.122396 45.983442 183.74712 40.105461 C 184.164434 33.601923 186.110018 28.591832 189.589511 24.449631 C 193.063364 20.391964 197.783519 17.410707 204.24624 15.669291 C 211.160111 4.696685 216.545712 -0.313406 220.397403 0.0190969 C 224.243456 0.39105 227.847015 4.989738 227.226684 18.115163 C 226.35822 31.364571 217.701783 58.325511 215.964857 78.196806 C 214.22229 97.865217 220.893668 116.130352 216.957386 135.387361 C 212.772972 154.599285 193.226906 173.60269 192.031359 192.572281 C 190.830173 211.496787 201.967934 236.547243 210.122466 247.767818 C 218.282639 258.700975 230.249388 258.453006 240.434095 258.035968 C 250.663917 257.540031 261.181347 245.158513 270.209982 244.831645 C 278.984846 244.375158 284.61858 251.910019 292.694161 255.595733 C 300.600562 259.241997 308.80021 262.674107 317.620188 266.359821 C 302.343128 269.673582 290.291788 275.264144 280.975545 283.464012 C 271.614186 291.66388 275.589944 304.913288 261.925744 315.226524 C 248.013411 325.370691 221.553475 341.10542 198.860639 344.047228 C 176.083213 346.780517 152.358372 342.7623 126.558242 331.829143 C 107.762213 353.486938 91.735116 368.810265 77.698717 378.745913 C 63.577728 388.394142 47.595746 391.33595 42.999657 390.462425 C 38.48252 389.555085 41.093549 384.167406 50.821467 373.859806 C 25.771374 379.991391 11.486843 381.563737 6.845639 378.745913 C 2.418732 375.80974 7.967874 368.641196 23.949856 356.755614 C 9.789392 359.657973 4.200773 358.992966 6.845639 354.771866 C 9.580735 350.421146 19.641376 341.601357 40.055905 331.333206 C 60.560664 320.895986 89.501924 308.514467 128.509465 293.23059 Z M 128.509465 293.23059 " stroke="#000000" stroke-width="0.036" stroke-opacity="1" stroke-miterlimit="10"/></g><path stroke-linecap="butt" transform="matrix(0.692675, 0, 0, 0.693132, 77.543356, 51.975045)" fill-opacity="1" fill="#ffffff" fill-rule="evenodd" stroke-linejoin="miter" d="M 137.329444 272.694289 C 133.066078 266.771223 129.050845 260.149336 125.114563 252.157988 C 121.099329 244.121554 113.18729 231.283547 113.852736 225.281582 C 114.636608 219.358516 119.650011 216.377259 129.501995 216.501243 L 136.336914 237.04318 C 132.981488 222.300325 130.703181 210.831781 129.501995 201.842922 C 128.300808 192.8597 128.509465 192.566646 129.00573 183.746857 C 129.298977 174.763634 128.509465 160.6407 131.447578 149.048172 C 134.267265 137.455644 139.150961 126.274519 146.109947 114.845425 C 145.320435 131.11554 145.320435 144.494569 146.109947 155.923663 C 146.854344 167.183687 148.264188 175.924577 150.497379 182.298495 C 149.792458 153.269272 149.792458 130.828122 150.497379 113.391427 C 150.993644 96.123802 151.783156 88.504406 154.433661 79.18868 C 157.168757 69.70952 161.759206 62.377542 166.648543 57.204017 C 171.329222 51.900872 176.754298 48.959064 182.754591 47.92774 L 177.870894 84.074787 C 181.846652 70.329441 185.117488 58.855262 188.140192 48.880165 C 190.914763 38.814898 192.984413 29.662605 195.471376 24.945568 C 197.992176 20.262344 200.603205 19.022502 203.293186 21.051335 L 195.471376 53.766272 C 199.695266 43.870074 202.966103 35.298253 205.740674 27.881741 C 208.38554 20.222895 209.050986 12.688034 211.577425 9.289738 C 213.979797 5.897078 219.156742 3.124339 220.397403 8.337313 C 221.429409 13.679908 220.025205 28.958149 218.412344 40.595762 C 216.669778 52.064306 211.413883 63.910438 210.624371 76.742809 C 209.879973 89.541365 214.103864 105.732582 214.019273 116.829173 C 213.979797 127.638345 213.483533 132.107414 209.631841 142.212131 C 205.407951 152.480282 193.565268 165.481722 189.589511 177.412388 C 185.529162 189.004916 183.876826 199.769004 186.194608 212.111073 C 188.551866 224.453142 196.751514 242.047635 203.749975 250.70399 C 210.545419 259.027842 218.948085 261.389179 227.232323 262.922075 C 235.426332 264.409886 245.075298 262.04855 252.654615 259.980267 C 260.025275 257.742915 265.574418 250.332038 271.704416 250.208053 C 277.749824 250.247503 282.966243 256.751041 288.808633 259.48433 C 294.560794 262.04855 300.109936 263.953399 305.907211 265.362311 C 292.575734 268.428103 282.842177 272.609754 276.091848 278.53282 C 269.341519 284.371351 269.967489 293.563093 265.82255 300.066631 C 261.559185 306.316565 261.14751 310.250247 250.669556 316.66925 C 239.943469 323.088253 217.171682 335.097819 202.300657 338.653913 C 187.356319 342.012759 173.522938 338.862432 161.764846 337.205551 C 149.922163 335.509221 140.188606 332.651948 131.949482 328.633731 L 163.710429 298.821153 C 158.330468 301.137404 151.332006 305.860077 142.21878 312.983536 C 133.026603 320.19153 121.680185 330.49913 109.465304 341.347753 C 97.126356 352.032941 78.696886 370.624944 69.380643 376.998862 C 60.024923 383.214981 51.988817 382.961377 54.227648 378.988245 C 56.630021 374.806595 65.98574 366.150239 83.089958 352.568328 C 64.45747 362.509611 49.671035 369.131497 38.1216 372.608692 C 26.442459 375.967538 15.800963 375.217997 14.182463 373.110265 C 12.693669 370.788378 20.024853 365.530318 28.844832 359.900306 C 37.540745 354.309743 49.710511 347.682221 65.98574 339.854306 C 45.486621 347.394803 31.371271 351.700438 22.962966 353.560202 C 14.515186 355.138183 11.283825 353.729271 16.128046 350.122456 C 21.056858 346.436743 31.619403 341.595721 52.282065 332.071476 C 72.899611 322.383797 101.310771 309.669775 138.784402 292.982622 C 121.680185 283.993763 108.100575 276.002414 97.250422 268.546452 C 86.315679 261.056676 78.285212 255.714081 74.269979 248.506088 C 70.20963 241.30373 70.000974 233.639248 73.316925 225.523915 L 105.077872 240.683808 C 91.329081 232.816444 79.64994 225.692985 69.876907 218.69351 C 59.855742 211.733485 51.825276 206.188007 46.439675 199.149083 C 41.099189 191.817105 39.610394 182.501379 38.115961 176.16691 C 36.5031 169.871891 36.170377 165.318288 37.123431 162.004527 L 56.212707 179.604655 C 45.93777 167.888143 37.783238 157.783426 31.281041 148.800204 C 24.654778 139.771896 19.934623 131.696012 17.577365 125.857481 C 15.259583 119.9795 15.259583 115.961283 17.577365 113.645031 L 35.172208 141.265342 C 26.730067 127.390377 20.103804 114.349487 15.135517 101.178978 C 10.037524 87.884485 4.697038 67.139664 5.362484 63.042548 C 5.982815 59.108866 12.191764 67.139664 19.06616 77.244381 C 25.816489 87.264563 35.465455 108.257352 45.94341 122.67334 C 56.376249 137.083691 69.58366 150.868486 81.099259 162.754068 C 92.445677 174.47058 105.861744 186.440696 113.356471 192.566646 C 120.55795 198.450262 124.370166 200.394561 124.618298 198.405177 L 124.618298 209.670837 C 117.952559 210.04279 113.604603 212.156158 111.405248 216.501243 C 109.211532 220.727979 106.97834 225.569 111.405248 235.053796 C 115.753204 244.454057 124.246099 256.835575 137.329444 272.694289 Z M 137.329444 272.694289 " stroke="#000000" stroke-width="0.036" stroke-opacity="1" stroke-miterlimit="10"/></svg>