<svg xmlns="http://www.w3.org/2000/svg" xmlns:xlink="http://www.w3.org/1999/xlink" width="500" zoomAndPan="magnify" viewBox="0 0 375 374.999991" height="500" preserveAspectRatio="xMidYMid meet" version="1.0"><defs><clipPath id="cff622b6c1"><path d="M 13.375 13.375 L 361.375 13.375 L 361.375 361.375 L 13.375 361.375 Z M 13.375 13.375 " clip-rule="nonzero"/></clipPath><clipPath id="61e0bbc421"><path d="M 67 60 L 304 60 L 304 324.191406 L 67 324.191406 Z M 67 60 " clip-rule="nonzero"/></clipPath></defs><g clip-path="url(#cff622b6c1)"><path fill="#12c2c2" d="M 187.375 13.375 C 91.277344 13.375 13.375 91.277344 13.375 187.375 C 13.375 283.472656 91.277344 361.375 187.375 361.375 C 283.472656 361.375 361.375 283.472656 361.375 187.375 C 361.375 91.277344 283.472656 13.375 187.375 13.375 " fill-opacity="1" fill-rule="nonzero"/></g><g clip-path="url(#61e0bbc421)"><path fill="#ffffff" d="M 166.113281 320.757812 C 166.222656 321.253906 166.410156 321.714844 166.683594 322.144531 C 166.957031 322.574219 167.296875 322.941406 167.703125 323.246094 C 168.105469 323.554688 168.550781 323.78125 169.039062 323.929688 C 169.527344 324.078125 170.023438 324.136719 170.53125 324.109375 C 171.425781 324.0625 172.269531 323.839844 173.066406 323.433594 C 173.867188 323.03125 174.546875 322.480469 175.109375 321.789062 C 177.035156 319.429688 177.4375 316.226562 177.765625 313.203125 L 187.097656 227.4375 C 187.332031 225.257812 187.613281 222.96875 188.902344 221.191406 C 190.191406 219.417969 192.855469 218.433594 194.65625 219.695312 C 195.875 220.554688 196.328125 222.113281 196.761719 223.539062 C 199.640625 232.984375 205.386719 241.6875 213.519531 247.308594 C 221.652344 252.929688 232.230469 255.226562 241.773438 252.613281 C 250.585938 250.199219 257.847656 243.972656 263.972656 237.203125 C 278.125 221.558594 287.65625 202.5 296.308594 183.460938 C 302.191406 170.511719 309.777344 154.847656 295.046875 144.632812 C 287.828125 139.628906 278.800781 138.269531 270.234375 137.476562 C 257.902344 136.339844 243.671875 133.59375 231.777344 138.230469 C 222.539062 141.832031 215.570312 149.472656 209.175781 157.039062 C 205.113281 161.851562 201.113281 166.769531 198.023438 172.253906 C 195.257812 177.039062 193.53125 182.171875 192.839844 187.648438 C 192.691406 188.972656 193.082031 191.558594 192.007812 192.554688 C 191.835938 192.6875 191.640625 192.785156 191.429688 192.84375 C 191.21875 192.902344 191.003906 192.921875 190.785156 192.894531 C 190.566406 192.871094 190.363281 192.804688 190.171875 192.699219 C 189.976562 192.59375 189.8125 192.457031 189.675781 192.285156 C 188.003906 190.570312 188.511719 187.773438 189.128906 185.460938 C 191.003906 178.460938 192.890625 171.425781 195.882812 164.828125 C 197.757812 160.585938 200.21875 156.714844 203.265625 153.210938 C 206.308594 149.707031 209.800781 146.726562 213.742188 144.269531 C 223.667969 137.914062 231.839844 132.472656 228.671875 119.515625 C 224.859375 103.945312 220.582031 86.722656 208.605469 75.207031 C 182.867188 50.457031 129.648438 56.007812 123.554688 95.75 C 120.929688 112.859375 128.722656 130.0625 137.902344 144.046875 C 142.171875 150.558594 146.046875 156.226562 153.277344 159.585938 C 159.808594 162.617188 167.085938 164.3125 172.363281 169.519531 C 175.324219 172.453125 177.632812 175.828125 179.292969 179.648438 C 180.351562 182.289062 181.15625 185.003906 181.707031 187.796875 C 182.238281 190.101562 181.21875 191.90625 178.875 192.488281 C 174.566406 193.558594 170.878906 190.941406 167.976562 188.089844 C 158.449219 178.742188 152.515625 166.023438 142.109375 157.65625 C 134.71875 151.714844 125.523438 148.375 116.222656 146.492188 C 108.4375 144.917969 99.996094 144.371094 92.878906 147.890625 C 86.367188 151.113281 81.855469 157.308594 78.394531 163.691406 C 76.003906 168.140625 74 172.757812 72.386719 177.539062 C 70.773438 182.324219 69.570312 187.207031 68.777344 192.191406 C 67.988281 197.175781 67.617188 202.191406 67.671875 207.238281 C 67.726562 212.285156 68.203125 217.292969 69.097656 222.261719 C 72.09375 238.535156 80.875 255.035156 96.140625 261.507812 C 108.601562 266.785156 123.34375 264.363281 135.199219 257.839844 C 147.050781 251.316406 156.433594 241.128906 164.78125 230.5 C 169.167969 224.917969 173.78125 218.839844 180.558594 216.703125 C 179.878906 250.097656 175.238281 282.933594 166.640625 315.214844 C 166.164062 316.996094 165.730469 319.027344 166.113281 320.757812 Z M 166.113281 320.757812 " fill-opacity="1" fill-rule="nonzero"/></g></svg>