<svg xmlns="http://www.w3.org/2000/svg" xmlns:xlink="http://www.w3.org/1999/xlink" width="500" zoomAndPan="magnify" viewBox="0 0 375 374.999991" height="500" preserveAspectRatio="xMidYMid meet" version="1.0"><defs><clipPath id="93be76887b"><path d="M 22.566406 22.566406 L 352.566406 22.566406 L 352.566406 352.566406 L 22.566406 352.566406 Z M 22.566406 22.566406 " clip-rule="nonzero"/></clipPath></defs><g clip-path="url(#93be76887b)"><path fill="#11406d" d="M 22.566406 187.566406 C 22.566406 278.695312 96.441406 352.566406 187.566406 352.566406 C 278.695312 352.566406 352.566406 278.695312 352.566406 187.566406 C 352.566406 96.441406 278.695312 22.566406 187.566406 22.566406 C 96.441406 22.566406 22.566406 96.441406 22.566406 187.566406 Z M 271.777344 164.84375 C 278.539062 164.84375 284.070312 170.375 284.070312 177.132812 C 284.070312 183.894531 278.539062 189.421875 271.777344 189.421875 L 103.355469 189.421875 C 96.597656 189.421875 91.066406 183.894531 91.066406 177.132812 C 91.066406 170.375 96.597656 164.84375 103.355469 164.84375 C 159.496094 164.84375 215.636719 164.84375 271.777344 164.84375 Z M 246.789062 153.84375 L 128.347656 153.84375 L 138.207031 92.746094 C 138.804688 89.035156 140.726562 86.0625 143.867188 83.996094 C 147.011719 81.925781 150.496094 81.335938 154.144531 82.25 L 183.625 89.65625 C 186.332031 90.335938 188.800781 90.335938 191.511719 89.65625 L 220.988281 82.25 C 224.636719 81.335938 228.125 81.925781 231.265625 83.996094 C 234.410156 86.0625 236.332031 89.035156 236.929688 92.746094 Z M 164.351562 241.316406 C 164.351562 262.433594 147.234375 279.550781 126.117188 279.550781 C 105 279.550781 87.878906 262.433594 87.878906 241.316406 C 87.878906 220.199219 105 203.078125 126.117188 203.078125 C 143.269531 203.078125 157.785156 214.375 162.628906 229.933594 C 166.046875 227.898438 169.753906 226.261719 173.679688 225.09375 C 178.105469 223.777344 182.769531 223.070312 187.566406 223.070312 C 192.363281 223.070312 197.027344 223.777344 201.453125 225.09375 C 205.382812 226.261719 209.085938 227.898438 212.503906 229.933594 C 217.347656 214.375 231.863281 203.078125 249.019531 203.078125 C 270.136719 203.078125 287.253906 220.199219 287.253906 241.316406 C 287.253906 262.433594 270.136719 279.550781 249.019531 279.550781 C 227.902344 279.550781 210.78125 262.433594 210.78125 241.316406 C 210.78125 241.238281 210.78125 241.160156 210.78125 241.082031 C 209.890625 241.011719 209 240.726562 208.199219 240.199219 C 205.167969 238.21875 201.859375 236.664062 198.359375 235.621094 C 194.964844 234.613281 191.34375 234.070312 187.566406 234.070312 C 183.789062 234.070312 180.164062 234.613281 176.773438 235.621094 C 173.273438 236.664062 169.964844 238.21875 166.933594 240.199219 C 166.132812 240.726562 165.242188 241.011719 164.351562 241.082031 C 164.351562 241.160156 164.351562 241.238281 164.351562 241.316406 Z M 164.351562 241.316406 " fill-opacity="1" fill-rule="evenodd"/></g></svg>