<svg xmlns="http://www.w3.org/2000/svg" xmlns:xlink="http://www.w3.org/1999/xlink" width="500" zoomAndPan="magnify" viewBox="0 0 375 374.999991" height="500" preserveAspectRatio="xMidYMid meet" version="1.0"><defs><clipPath id="81d0634341"><path d="M 25.621094 25.621094 L 349.621094 25.621094 L 349.621094 349.621094 L 25.621094 349.621094 Z M 25.621094 25.621094 " clip-rule="nonzero"/></clipPath></defs><g clip-path="url(#81d0634341)"><path fill="#11406d" d="M 187.539062 25.621094 C 98.035156 25.621094 25.621094 98.117188 25.621094 187.621094 C 25.621094 277.125 98.035156 349.621094 187.539062 349.621094 C 277.042969 349.621094 349.621094 277.125 349.621094 187.621094 C 349.621094 98.117188 277.042969 25.621094 187.539062 25.621094 Z M 187.621094 317.222656 C 116.015625 317.222656 58.019531 259.226562 58.019531 187.621094 C 58.019531 116.015625 116.015625 58.019531 187.621094 58.019531 C 259.226562 58.019531 317.222656 116.015625 317.222656 187.621094 C 317.222656 259.226562 259.226562 317.222656 187.621094 317.222656 Z M 187.621094 317.222656 " fill-opacity="1" fill-rule="nonzero"/></g><path fill="#11406d" d="M 195.722656 106.621094 L 171.421875 106.621094 L 171.421875 203.820312 L 256.390625 254.851562 L 268.621094 234.925781 L 195.722656 191.671875 Z M 195.722656 106.621094 " fill-opacity="1" fill-rule="nonzero"/></svg>